<?xml version="1.0" encoding="UTF-8"?>
<svg id="account" xmlns="http://www.w3.org/2000/svg" viewBox="0 0 1366 768">
  <path d="m849.03,348.23v23.96c-.24,1.28-.54,2.55-.71,3.84-.98,7.51-1.55,15.09-2.96,22.52-7.73,40.72-26.27,75.9-55.4,105.32-30.54,30.84-67.25,50.26-110.12,57.65-7.7,1.33-15.5,2.11-23.25,3.15h-23.96c-1.16-.23-2.31-.51-3.48-.69-11.15-1.73-22.48-2.66-33.42-5.28-104.91-25.13-172.49-130.55-151.97-236.67,8.53-44.12,29.14-81.73,62.32-111.95,47.34-43.12,103.28-60.31,166.67-52.26,40.38,5.13,75.95,21.7,106.46,48.64,35.93,31.73,58.4,71.22,66.67,118.57,1.34,7.68,2.11,15.47,3.15,23.21Zm-68.1,129.45c56.87-63.03,64.94-175.56-13.56-249.66-74.81-70.61-196.27-62.74-261.82,17.34-65.87,80.46-44.02,182.59,2.84,232.01,13.24-46.75,42.67-78.94,87.71-97.21-47.38-34.04-46.23-95.06-15.52-128.63,31.89-34.87,85.65-38.44,120.28-7.62,18.76,16.69,29.12,37.58,29.61,62.67.59,30.73-12.51,55.05-37.34,73.49,45.28,18.37,74.36,50.73,87.81,97.61Zm-133.02,63.03c4.31-.36,12.02-.73,19.67-1.68,30.71-3.81,58.54-15.04,83.45-33.35,10.09-7.42,9.95-7.61,6.94-20.1-14.5-60.3-71.97-98.36-133.03-88.1-49.56,8.33-88.94,49.02-95.54,98.88-.16,1.2.71,3.03,1.69,3.82,33.1,26.64,70.98,39.97,116.81,40.53Zm-3.32-169.78c34.08.04,61.88-27.61,62.15-61.81.27-34.01-27.92-62.29-62.1-62.31-34.17-.02-62.35,28.21-62.15,62.26.2,34.15,27.98,61.83,62.1,61.86Z"/>
</svg>