<?xml version="1.0" encoding="UTF-8"?>
<svg id="cow-bell" xmlns="http://www.w3.org/2000/svg" viewBox="0 0 1920 768">
  <path id="bell" d="m862.38,159.21c0-9.94-.02-19.29,0-28.64.05-18.52,12.77-31.22,31.33-31.24,23.08-.03,46.17-.03,69.25,0,18.34.03,31.11,12.75,31.18,31.02.03,9.46,0,18.93,0,28.82,9.48-.41,17.99,1.71,24.8,8.27,17.09-12.72,34.51-8.86,45.01-.8,12.05,9.26,17.06,25.12,12.33,39.53-2.96,9.03-8.66,15.91-17.01,20.51-8.19,4.5-16.94,5.35-26.53,3.35.73,7.54,1.38,14.58,2.09,21.61,2.91,28.66,5.84,57.31,8.78,85.96,2.87,28.03,5.86,56.05,8.59,84.1.78,8.03,1.97,16.26,1.01,24.15-1.73,14.17-14.25,24.37-28.61,24.73-7.86.2-15.72.06-23.58.06-54.16,0-108.31-.17-162.47.12-13.13.07-24.12-3.11-32.29-15.36-3.01,3.34-5.62,6.5-8.51,9.36-7.79,7.71-18.83,7.93-26.07.67-7.23-7.25-6.97-18.29.75-26.07,10.37-10.45,20.88-20.77,31.17-31.29,1.33-1.36,2.32-3.55,2.52-5.46,3.03-28.39,5.92-56.8,8.82-85.21,2.86-28.04,5.67-56.08,8.53-84.11,1.62-15.88,3-31.79,5.03-47.61,2.06-16.06,14.07-26.27,30.18-26.47,1.09-.01,2.19,0,3.68,0Zm159.41,81.86c-1.55,1.46-2.55,2.36-3.5,3.3-66.62,66.6-133.24,133.21-199.86,199.81-.35.35-.67.76-1.07,1.05-1.7,1.22-1.52,2.57-.52,4.17,3.91,6.24,9.55,9.26,16.87,9.26,21.59,0,43.17,0,64.76,0,41.43,0,82.85.02,124.28-.01,11.91-.01,20.25-8.52,19.18-19.92-1.91-20.36-4.12-40.69-6.2-61.03-2.63-25.68-5.25-51.35-7.87-77.03-2-19.6-4-39.19-6.08-59.6Zm-10.63-64.29c-3.95-4.19-8.75-5.61-14.23-5.61-45.54.04-91.08.02-136.63.02-12.51,0-19.34,6.46-20.39,18.97-.72,8.57-1.68,17.12-2.55,25.68-2.64,25.8-5.28,51.6-7.92,77.4-2.64,25.8-5.29,51.6-7.92,77.4-.7,6.85-1.35,13.71-2.12,21.58,1.88-1.8,2.95-2.78,3.98-3.81,60-59.98,119.99-119.97,179.99-179.96.88-.88,1.92-1.66,2.6-2.68.56-.84,1.13-2.05.95-2.94-1.9-9.2-.33-17.82,4.24-26.05Zm1.17,39.7c-.3.28-.67.61-1.02.96-76.56,76.55-153.12,153.1-229.67,229.66-.79.79-1.62,1.59-2.19,2.53-1.46,2.4-1.28,4.85.57,6.92,1.94,2.17,4.45,2.81,7.1,1.38,1.28-.69,2.4-1.76,3.45-2.81,76.04-76.01,152.07-152.03,228.09-228.06.83-.83,1.59-1.75,1.79-1.98-2.82-2.99-5.37-5.7-8.11-8.6Zm-120-57.54h71.69v-29.45h-71.69c0,1.06,0,1.9,0,2.75,0,8.83,0,17.67,0,26.71Zm173.7,36.32c.05-13.25-10.71-24.07-23.93-24.06-13.26,0-23.98,10.76-23.97,24.03,0,13.05,10.7,23.8,23.75,23.88,13.27.08,24.1-10.62,24.16-23.85Zm-185.67-36.18c0-4.03.05-7.64,0-11.25-.5-31.23-.78-30.97,30.35-30.57,15.83.2,31.69.47,47.5-.1,13.65-.49,18.85,4.54,18.07,17.99-.46,7.91-.08,15.87-.08,23.8h5.94c0-10.6.29-20.94-.09-31.26-.34-9.07-8.12-16.29-17.32-16.34-24.31-.12-48.63-.13-72.94,0-9.63.05-17.16,7.83-17.39,17.49-.11,4.61-.03,9.23-.03,13.84,0,5.44,0,10.88,0,16.39h5.99Zm-41.88,167.13c4.02.44,7.78.86,11.9,1.31,4-38.02,7.96-75.74,11.95-113.73-4.07-.44-7.75-.84-11.9-1.3-4,38.08-7.96,75.7-11.95,113.71Z"/>
</svg>