<?xml version="1.0" encoding="UTF-8"?>
<svg id="disco-ball" xmlns="http://www.w3.org/2000/svg" viewBox="0 0 1920 768">
  <path d="m803.83,169.81c0-29.77-.54-56.72.43-83.62.21-5.87,5.81-11.54,8.93-17.3,2.9,5.99,8.08,11.91,8.3,17.99.93,26.27.4,52.59.4,80.69,6.51.79,12.15,2.03,17.79,2.06,16.5.08,34.58-3.61,32.54,23.62-.29,3.82,11.42,9.83,18.44,12.7,82.17,33.54,131.23,111.62,126.48,202.09-4.48,85.41-63.85,159.71-146.52,183.38-104.66,29.96-214.89-27.48-250.3-130.43-35.19-102.32,15.7-213.21,117.01-254.43,12.55-5.11,26.26-7.72,23.88-26.77-.34-2.69,8.9-8.5,14.35-9.55,8.51-1.63,17.57-.43,28.29-.43Zm-1.12,216.45v-78.89c-19.54,0-37.55-.92-55.37.53-5.69.46-14.24,6.24-15.68,11.26-6.13,21.33-10.08,43.29-15.29,67.1h86.33Zm105.88-1.21c-5.26-23.86-9.38-45.64-15.28-66.93-1.29-4.65-8.68-10.41-13.61-10.75-18.36-1.28-36.86-.51-55.78-.51v78.19h84.67Zm-84.69,21.82v73.41c78.59,3.08,68.43,15.53,81.9-59.37.75-4.15.1-8.55.1-14.04h-82Zm-20.9,72v-72.35h-83.24c1.35,69.59,11.44,79.11,77.13,74.48,1.41-.1,2.76-.94,6.11-2.13Zm200.22-93.44c-8.84-26.64-12.72-52.93-26.28-72.53-6.14-8.88-31.51-4.69-48.18-5.95-5.72-.43-11.55.58-17.51.95,5.16,26.6,10.1,52.02,15.05,77.53h76.92Zm-379.53.97h73.8c5.12-26.64,10-52.01,15.2-79.03-18.1,0-35.27-.56-52.36.35-5.01.27-12.83,3.63-14.18,7.42-8.09,22.69-14.67,45.91-22.46,71.25Zm289.41,95.07c19.69,0,37.01.73,54.2-.42,5.56-.37,14.05-4.51,15.62-8.91,7.38-20.74,12.83-42.18,19.68-65.85h-75.93c-4.53,25.12-8.78,48.64-13.57,75.18Zm-200.09.01c-5.06-26.43-9.77-50.98-14.34-74.84h-73.57c6.08,22.09,10.23,41.96,17.43,60.65,2.41,6.26,12.2,12.68,19.29,13.55,16.25,2,32.91.63,51.19.63Zm251.25-192.24c-29.44-43.48-85.4-77.32-107.65-69.38,13.22,19.28,26.41,39.2,40.47,58.49,3.44,4.71,9.54,9.96,14.8,10.4,16.13,1.35,32.45.49,52.38.49Zm2.88,211.33c-21.65,0-37.45-.62-53.15.36-5.02.31-11.51,3.6-14.39,7.63-16.01,22.39-31.11,45.43-46.57,68.33,45.51-9.82,82.23-34.19,114.11-76.31Zm-304.92,0c24.56,40.48,73.52,71.87,108.52,73.7-14-20.72-28.78-43.22-44.4-65.12-2.92-4.1-9.1-7.87-14.01-8.2-15.59-1.04-31.3-.39-50.11-.39Zm-.47-211.31c19.69,0,35.18.42,50.62-.26,4.63-.2,11.02-2.17,13.38-5.57,15.08-21.76,29.26-44.15,45.45-68.96-45.3,12.19-80.68,34.12-109.45,74.79Zm161.64,278.56c1.95,1.51,3.91,3.02,5.86,4.54,17.95-22.19,35.9-44.37,56.88-70.31h-62.75v65.77Zm-84.39-280.28h63.93v-66.78c-1.73-1.06-3.46-2.11-5.19-3.17-18.2,21.67-36.4,43.34-58.74,69.95Zm8.25,213.91c-1.31,1.92-2.62,3.85-3.92,5.77,18.2,21.68,36.4,43.36,54.59,65.04,1.51-1.13,3.02-2.26,4.53-3.4v-67.42h-55.2Zm138.21-213.38c-21.63-25.75-39.39-46.9-57.15-68.04l-4.68,4.39v63.65h61.83Zm-307.9-121.61c-.99-.84-6.78,1.39-7.35,3.15-1,3.11-1.07,8.29.87,10.29,14.61,15.11,29.45,30.06,45.21,43.94,2.38,2.09,9.86-1.61,22.01-4.03-23.97-21.23-42.17-37.5-60.74-53.35Zm422.16,368.95c-1.05,3.1-1.3,8.32.58,10.27,14.59,15.13,29.53,29.94,45.03,44.13,2.12,1.94,7.92-.14,12.02-.35-.65-4.57.36-10.66-2.22-13.45-12.23-13.22-25.37-25.62-38.36-38.13-2.61-2.51-5.94-4.27-9.59-6.83-2.83,1.54-6.8,2.39-7.47,4.36Zm54.99-368.3c-4.08.14-9.22.77-11.97,3.3-13.29,12.19-26.36,24.69-38.53,37.98-3.15,3.44-2.79,10.1-4.04,15.28,5.27-.84,12.13.14,15.54-2.83,13.57-11.85,26.16-24.84,38.9-37.62,2.53-2.54,4.13-6,8.5-12.54-2.9-1.32-5.69-3.65-8.39-3.56Zm67.39,108.12c2.06-.89,3.99-7.89,2.76-9.35-2.33-2.77-7.75-5.81-10.57-4.85-19.82,6.75-39.45,14.17-58.76,22.28-2.81,1.18-4.88,7.2-4.83,10.94.03,2.14,5.03,4.21,8.17,6.6,21.68-8.65,42.61-16.75,63.22-25.61Zm-505.05,258.1c-15.66,15.1-31.39,30.14-46.55,45.74-1.7,1.74-1.2,8.99.34,9.81,3.31,1.76,9.68,2.88,11.79.95,15.53-14.15,30.69-28.77,44.95-44.19,2.06-2.23-1.34-9.51-2.3-14.89-5.45,1.65-7.28,1.66-8.23,2.57Zm-113.86-264.96c-.21,3.32,3.36,8.79,6.6,10.13,18.6,7.68,37.49,14.72,56.57,21.14,2.93.99,8.27-1.49,10.66-4.07,1.3-1.4-.29-8.54-2.24-9.42-20.34-9.16-41.01-17.57-62.55-26.59-3.59,3.27-8.85,5.87-9.04,8.81Zm602.79,115.68c9.75,0,19.61.8,29.22-.39,3.96-.49,7.39-5.26,11.06-8.09-2.89-2.99-5.74-8.51-8.68-8.56-20.96-.36-41.97.05-62.9,1.21-2.8.16-5.29,5.88-7.93,9.03,3.33,2.46,6.47,6.67,10.01,7.04,9.65.98,19.47.34,29.22.34,0-.19,0-.38,0-.57Zm-55.93,79.85c-.33,3.57,1.58,9.7,4.21,10.8,19.87,8.3,40.04,15.92,60.41,22.89,2.55.87,7.98-2.59,9.89-5.49,1.17-1.77-.98-8.35-3.13-9.26-20.49-8.7-41.3-16.65-62.48-25-3.51,2.25-8.69,3.93-8.89,6.06Zm-526.86-79.26c9.79,0,19.64.65,29.33-.34,3.57-.37,6.75-4.6,10.11-7.06-2.66-3.17-5.17-8.95-7.99-9.1-21.01-1.14-42.09-1.51-63.14-1.14-2.86.05-7.64,5.39-7.82,8.49-.15,2.64,4.85,7.71,7.93,8,10.44,1.01,21.04.39,31.58.39,0,.26,0,.51,0,.77Zm42.11,74.39c-18.47,5.97-36.71,12.82-54.6,20.36-3.79,1.6-5.82,7.37-8.66,11.22,5.04,1.57,10.88,5.6,14.99,4.28,17.76-5.71,35.1-12.79,52.4-19.85,3.62-1.48,6.41-4.99,13.97-11.14-8.93-2.57-14.29-6.11-18.1-4.87Z"/>
</svg>