<?xml version="1.0" encoding="UTF-8"?>
<svg id="disco-ball" xmlns="http://www.w3.org/2000/svg" viewBox="0 0 1920 768">
  <path d="m964.4,235.68c0-29.77-.51-56.72.4-83.62.2-5.87,5.53-11.54,8.49-17.3,2.75,5.99,7.68,11.91,7.89,17.99.88,26.27.38,52.59.38,80.69,6.19.79,11.55,2.03,16.92,2.06,15.69.08,32.88-3.61,30.94,23.62-.27,3.82,10.86,9.83,17.54,12.7,78.13,33.54,124.77,111.62,120.26,202.09-4.26,85.41-60.71,159.71-139.32,183.38-99.52,29.96-204.32-27.48-237.99-130.43-33.46-102.32,14.93-213.21,111.25-254.43,11.93-5.11,24.97-7.72,22.7-26.77-.32-2.69,8.47-8.5,13.64-9.55,8.1-1.63,16.71-.43,26.9-.43Zm-1.06,216.45v-78.89c-18.58,0-35.7-.92-52.64.53-5.41.46-13.54,6.24-14.91,11.26-5.83,21.33-9.59,43.29-14.54,67.1h82.09Zm100.67-1.21c-5-23.86-8.92-45.64-14.53-66.93-1.22-4.65-8.26-10.41-12.94-10.75-17.46-1.28-35.05-.51-53.04-.51v78.19h80.51Zm-80.53,21.82v73.41c74.73,3.08,65.06,15.53,77.87-59.37.71-4.15.09-8.55.09-14.04h-77.97Zm-19.87,72v-72.35h-79.15c1.28,69.59,10.88,79.11,73.34,74.48,1.34-.1,2.63-.94,5.81-2.13Zm190.38-93.44c-8.41-26.64-12.09-52.93-24.98-72.53-5.84-8.88-29.96-4.69-45.82-5.95-5.44-.43-10.98.58-16.65.95,4.91,26.6,9.61,52.02,14.31,77.53h73.14Zm-360.87.97h70.18c4.87-26.64,9.51-52.01,14.45-79.03-17.21,0-33.54-.56-49.79.35-4.76.27-12.2,3.63-13.49,7.42-7.69,22.69-13.95,45.91-21.36,71.25Zm275.18,95.07c18.73,0,35.19.73,51.54-.42,5.29-.37,13.36-4.51,14.85-8.91,7.02-20.74,12.2-42.18,18.72-65.85h-72.2c-4.31,25.12-8.35,48.64-12.9,75.18Zm-190.25.01c-4.82-26.43-9.29-50.98-13.64-74.84h-69.96c5.78,22.09,9.73,41.96,16.58,60.65,2.29,6.26,11.6,12.68,18.34,13.55,15.45,2,31.29.63,48.67.63Zm238.9-192.24c-27.99-43.48-81.2-77.32-102.36-69.38,12.57,19.28,25.11,39.2,38.48,58.49,3.27,4.71,9.07,9.96,14.07,10.4,15.34,1.35,30.85.49,49.81.49Zm2.74,211.33c-20.59,0-35.61-.62-50.54.36-4.78.31-10.94,3.6-13.68,7.63-15.22,22.39-29.58,45.43-44.28,68.33,43.28-9.82,78.19-34.19,108.5-76.31Zm-289.93,0c23.35,40.48,69.91,71.87,103.18,73.7-13.31-20.72-27.36-43.22-42.21-65.12-2.78-4.1-8.65-7.87-13.32-8.2-14.83-1.04-29.76-.39-47.64-.39Zm-.44-211.31c18.72,0,33.45.42,48.14-.26,4.4-.2,10.48-2.17,12.72-5.57,14.34-21.76,27.82-44.15,43.22-68.96-43.07,12.19-76.71,34.12-104.07,74.79Zm153.69,278.56c1.86,1.51,3.72,3.02,5.57,4.54,17.07-22.19,34.14-44.37,54.09-70.31h-59.66v65.77Zm-80.24-280.28h60.78v-66.78c-1.64-1.06-3.29-2.11-4.93-3.17-17.3,21.67-34.61,43.34-55.85,69.95Zm7.84,213.91c-1.24,1.92-2.49,3.85-3.73,5.77,17.3,21.68,34.61,43.36,51.91,65.04,1.44-1.13,2.87-2.26,4.31-3.4v-67.42h-52.48Zm131.41-213.38c-20.57-25.75-37.45-46.9-54.34-68.04-1.48,1.46-2.97,2.93-4.45,4.39v63.65h58.79Zm-292.76-121.61c-.94-.84-6.45,1.39-6.98,3.15-.95,3.11-1.01,8.29.83,10.29,13.89,15.11,28,30.06,42.98,43.94,2.26,2.09,9.38-1.61,20.93-4.03-22.79-21.23-40.1-37.5-57.76-53.35Zm401.41,368.95c-1,3.1-1.23,8.32.55,10.27,13.87,15.13,28.08,29.94,42.82,44.13,2.02,1.94,7.53-.14,11.43-.35-.61-4.57.34-10.66-2.11-13.45-11.63-13.22-24.13-25.62-36.47-38.13-2.48-2.51-5.65-4.27-9.11-6.83-2.69,1.54-6.47,2.39-7.1,4.36Zm52.29-368.3c-3.88.14-8.76.77-11.38,3.3-12.64,12.19-25.06,24.69-36.63,37.98-3,3.44-2.65,10.1-3.84,15.28,5.01-.84,11.53.14,14.77-2.83,12.91-11.85,24.87-24.84,36.99-37.62,2.4-2.54,3.93-6,8.08-12.54-2.76-1.32-5.41-3.65-7.98-3.56Zm64.08,108.12c1.96-.89,3.8-7.89,2.63-9.35-2.22-2.77-7.37-5.81-10.05-4.85-18.85,6.75-37.51,14.17-55.87,22.28-2.67,1.18-4.64,7.2-4.59,10.94.03,2.14,4.79,4.21,7.77,6.6,20.61-8.65,40.52-16.75,60.11-25.61Zm-480.22,258.1c-14.89,15.1-29.85,30.14-44.26,45.74-1.61,1.74-1.14,8.99.32,9.81,3.15,1.76,9.21,2.88,11.21.95,14.77-14.15,29.18-28.77,42.74-44.19,1.96-2.23-1.28-9.51-2.18-14.89-5.18,1.65-6.92,1.66-7.82,2.57Zm-108.26-264.96c-.2,3.32,3.19,8.79,6.28,10.13,17.69,7.68,35.65,14.72,53.79,21.14,2.79.99,7.86-1.49,10.14-4.07,1.24-1.4-.28-8.54-2.13-9.42-19.34-9.16-38.99-17.57-59.48-26.59-3.41,3.27-8.42,5.87-8.6,8.81Zm573.16,115.68c9.28,0,18.65.8,27.78-.39,3.77-.49,7.03-5.26,10.52-8.09-2.75-2.99-5.46-8.51-8.26-8.56-19.93-.36-39.9.05-59.81,1.21-2.66.16-5.03,5.88-7.54,9.03,3.16,2.46,6.16,6.67,9.52,7.04,9.18.98,18.51.34,27.79.34,0-.19,0-.38,0-.57Zm-53.18,79.85c-.31,3.57,1.5,9.7,4,10.8,18.89,8.3,38.07,15.92,57.44,22.89,2.42.87,7.59-2.59,9.4-5.49,1.11-1.77-.94-8.35-2.98-9.26-19.48-8.7-39.27-16.65-59.41-25-3.34,2.25-8.27,3.93-8.45,6.06Zm-500.96-79.26c9.31,0,18.68.65,27.89-.34,3.4-.37,6.42-4.6,9.61-7.06-2.52-3.17-4.91-8.95-7.59-9.1-19.98-1.14-40.02-1.51-60.03-1.14-2.72.05-7.27,5.39-7.43,8.49-.14,2.64,4.61,7.71,7.54,8,9.93,1.01,20.01.39,30.03.39,0,.26,0,.51,0,.77Zm40.04,74.39c-17.57,5.97-34.9,12.82-51.92,20.36-3.6,1.6-5.54,7.37-8.24,11.22,4.8,1.57,10.34,5.6,14.26,4.28,16.89-5.71,33.38-12.79,49.83-19.85,3.44-1.48,6.09-4.99,13.28-11.14-8.49-2.57-13.58-6.11-17.21-4.87Z"/>
</svg>