<?xml version="1.0" encoding="UTF-8"?>
<svg id="Drums" xmlns="http://www.w3.org/2000/svg" viewBox="0 0 1920 768">
  <path id="drum_sticks" data-name="drum sticks" d="m662.97,83.4c72.16,71.64,144.28,143.3,216.5,214.88,2.72,2.7,3.85,4.96,3.18,9.05-2.32,14.19,8.43,26.74,22.92,27.51,14.11.75,25.79-11.07,25.28-25.57-.49-13.82-13.06-24.66-27.08-22.52-4.63.71-7.15-.66-10.12-3.61-71.99-71.62-144.06-143.16-216.13-214.71-.9-.89-1.87-1.7-2.64-2.4-4.93,4.94-9.61,9.63-14.88,14.91.96.78,2.04,1.54,2.97,2.45Zm609.46-15.98c-37.56,37.29-75.11,74.58-112.66,111.87-35.14,34.89-70.29,69.77-105.37,104.72-1.96,1.95-3.66,2.64-6.52,2.07-3.01-.6-6.33-.56-9.36.02-13.27,2.55-21.66,14.9-19.27,27.93,2.4,13.11,14.91,21.77,28.25,19.57,13-2.14,21.92-14.3,19.64-27.57-.62-3.62.29-5.65,2.73-8.07,67.82-67.23,135.56-134.55,203.34-201.82,5.56-5.51,11.29-10.86,16.78-16.13-5.3-5.3-10-10-15.01-15.01-.86.81-1.73,1.6-2.56,2.42Z"/>
  <path id="drum" d="m774.9,389.79c.18-1.92.34-3.56.52-5.48h20.58c0,2.59.23,5.17-.06,7.69-.36,3.12.97,4.26,3.87,4.97,26.82,6.61,53.95,11.39,81.43,14.24,10.45,1.08,20.93,1.96,31.39,2.89,1.66.15,3.35.02,5.03.02.2-.51.45-.86.47-1.22q.48-7.49,7.92-7.49c4.19,0,8.37,0,13.04,0v9.87c1.59.16,2.73.34,3.87.37,38.01,1.25,75.94.19,113.8-3.57,4.75-.47,2.77-3.74,3.89-6.51,6.14,0,12.52-.09,18.89.12.79.03,1.52,1.7,2.74,3.17,7.8-1.26,16.22-2.49,24.57-4.01,24.58-4.48,48.8-10.3,72.42-18.55,3.39-1.19,4.59-2.78,4.21-6.17-.26-2.3-.05-4.66-.05-7.6,6.72,0,13.1-.09,19.46.12.75.02,1.44,1.65,2.55,3.01,1.62-.78,3.84-1.79,6-2.91,13.58-7.04,26.61-14.88,36.6-26.74,12.22-14.51,12.19-28.28-.12-42.7-10.15-11.9-23.31-19.82-37.1-26.73-23.95-12-49.41-19.8-75.39-26.04-1.89-.45-3.77-.91-6.58-1.59,4.85-4.8,9.4-8.86,13.39-13.4,2.75-3.13,5.41-3.5,9.26-2.46,30.54,8.25,60.34,18.28,87.17,35.47,11.01,7.05,20.99,15.29,28.71,25.96,6.95,9.6,10.63,20.13,10.61,32.15-.11,99.44-.04,198.87-.03,298.31,0,1.94.76,4.39-2.62,4.53-.41.02-.91.87-1.16,1.44-7.55,17.14-21,28.89-36.47,38.48-9.11,5.65-18.86,10.3-28.42,15.22-3.12,1.61-6.78,2.47-4.54,7.42-1.44.23-2.32.56-3.15.48-7.91-.77-15.23,1.35-22.65,3.84-29.6,9.89-60.04,16.22-90.91,20.64-1.04.15-2.08.43-3.12.43-3.21,0-4.42,1.5-3.96,4.62.15.99-.12,2.04-.22,3.34h-20.29c-.24-1.36-.48-2.71-.83-4.69-39.85,4.08-79.81,5.39-120.34,3.85v10.46h-21.16c0-2.85-.18-5.31.05-7.73.29-3.05-.88-3.82-3.92-4.15-24.94-2.68-49.9-5.22-74.75-8.61-13.24-1.81-26.26-5.2-39.37-7.88-1.24-.25-2.49-.49-3.93-.77-.18,1.68-.32,2.96-.5,4.58h-20.36c-.08-1.92-.42-3.96-.21-5.95.34-3.28-.85-4.75-4.13-5.75-20.89-6.38-41.19-14.27-60.03-25.43-15.03-8.9-28.8-19.26-38.28-34.31-5.21-8.27-7.93-17.23-7.92-27.07.05-98.91.05-197.83-.09-296.74,0-2.67,1.97-3.61,2.67-5.44,7.28-19.14,22.04-31.49,38.62-42.09,20.62-13.17,43.25-21.93,66.55-29.04,8.41-2.57,16.94-4.73,25.44-6.98,1.14-.3,2.93-.51,3.58.1,5.49,5.16,10.78,10.52,16.56,16.24-9.03,2.27-17.31,4.2-25.51,6.44-26.56,7.26-52.44,16.23-75.96,30.87-8.84,5.51-17.01,11.85-23.41,20.18-9.89,12.87-9.93,25.58-.06,38.42,7.65,9.95,17.71,17.05,28.4,23.31,16.03,9.39,33.18,16.3,50.83,22.02.71.23,1.46.34,2.47.57Zm143.02,45.65c-41.12-2.65-81.66-7.93-121.97-17.86,0,1.77,0,3.05,0,4.33,0,86.09.01,172.18-.06,258.26,0,2.96.69,4.22,3.8,5,32.94,8.32,66.4,13.29,100.22,16.13,5.95.5,11.91.88,18,1.33v-267.21Zm163.35,261.35c.94,0,1.33.05,1.72,0,33.1-4.67,65.63-11.72,97.24-22.72,3.05-1.06,3.13-2.87,3.13-5.34-.03-85.69-.02-171.39-.03-257.08,0-1.36-.13-2.72-.21-4.49-33.5,11.34-67.53,18.08-101.85,22.85v266.8Zm-221.67-456.7c.62.61,2.2.45,3.3.34,18.03-1.78,36.02-4.15,54.09-5.32,54.55-3.54,108.98-2.04,163.15,5.47,5.36.74,8.86-.26,12.29-4.23,3.78-4.38,8.16-8.26,12.84-12.92-59.99-10.08-119.41-12.68-179.11-9.65-27.89,1.42-55.67,4.21-83.81,9.02,6.03,6.1,11.56,11.78,17.25,17.3Z"/>
</svg>