<?xml version="1.0" encoding="UTF-8"?>
<svg id="Drums" xmlns="http://www.w3.org/2000/svg" viewBox="0 0 1920 768">
  <path id="drum_sticks" data-name="drum sticks" d="m672.53,67.13c71.71,71.7,143.39,143.42,215.15,215.06,2.7,2.7,3.83,4.96,3.16,9.06-2.31,14.2,8.37,26.76,22.78,27.53,14.02.75,25.63-11.08,25.12-25.59-.49-13.83-12.98-24.68-26.91-22.54-4.6.71-7.11-.66-10.06-3.61-71.55-71.68-143.17-143.28-214.79-214.9-.89-.89-1.86-1.7-2.62-2.4-4.89,4.94-9.55,9.64-14.79,14.93.95.78,2.03,1.54,2.95,2.45Zm605.68-15.99c-37.32,37.32-74.64,74.64-111.96,111.97-34.92,34.92-69.85,69.83-104.72,104.81-1.95,1.95-3.63,2.64-6.48,2.07-2.99-.6-6.3-.56-9.3.02-13.18,2.55-21.52,14.91-19.15,27.95,2.39,13.12,14.82,21.79,28.08,19.59,12.92-2.14,21.78-14.32,19.52-27.6-.62-3.63.29-5.65,2.72-8.08,67.4-67.29,134.72-134.66,202.07-202,5.52-5.52,11.22-10.87,16.68-16.15-5.27-5.31-9.94-10.01-14.92-15.02-.85.81-1.72,1.6-2.54,2.43Z"/>
  <path id="drum" d="m783.76,373.78c.18-1.92.34-3.56.52-5.48h20.45c0,2.6.23,5.18-.06,7.7-.36,3.12.97,4.26,3.85,4.98,26.65,6.62,53.62,11.4,80.93,14.25,10.39,1.08,20.8,1.97,31.2,2.89,1.65.15,3.33.02,5,.02.2-.51.44-.86.47-1.22q.48-7.5,7.87-7.5c4.16,0,8.32,0,12.96,0v9.88c1.58.16,2.71.34,3.84.37,37.78,1.25,75.47.19,113.1-3.58,4.72-.47,2.75-3.74,3.86-6.52,6.1,0,12.44-.09,18.77.12.79.03,1.51,1.7,2.72,3.17,7.76-1.27,16.12-2.49,24.42-4.01,24.42-4.48,48.5-10.31,71.97-18.56,3.37-1.19,4.56-2.79,4.19-6.18-.25-2.3-.05-4.66-.05-7.61,6.68,0,13.02-.09,19.34.12.74.02,1.43,1.65,2.53,3.02,1.61-.78,3.81-1.79,5.96-2.92,13.5-7.05,26.45-14.89,36.38-26.76,12.15-14.52,12.11-28.3-.12-42.74-10.09-11.91-23.16-19.83-36.87-26.75-23.81-12.01-49.1-19.81-74.92-26.06-1.87-.45-3.75-.91-6.54-1.59,4.82-4.8,9.34-8.87,13.31-13.41,2.74-3.14,5.37-3.5,9.21-2.46,30.35,8.26,59.96,18.3,86.63,35.5,10.94,7.05,20.86,15.3,28.54,25.98,6.9,9.6,10.56,20.14,10.55,32.18-.11,99.52-.03,199.04-.03,298.56,0,1.94.76,4.39-2.6,4.53-.41.02-.91.88-1.15,1.44-7.5,17.16-20.87,28.92-36.25,38.51-9.06,5.65-18.74,10.31-28.24,15.23-3.1,1.61-6.74,2.47-4.51,7.42-1.43.23-2.3.56-3.13.48-7.86-.77-15.13,1.36-22.51,3.84-29.41,9.9-59.67,16.24-90.35,20.65-1.03.15-2.07.43-3.1.43-3.19,0-4.39,1.51-3.94,4.63.15.99-.12,2.04-.22,3.34h-20.16c-.24-1.36-.48-2.71-.82-4.7-39.61,4.08-79.32,5.4-119.59,3.85v10.47h-21.03c0-2.85-.18-5.32.05-7.74.29-3.05-.87-3.83-3.89-4.16-24.78-2.68-49.59-5.23-74.28-8.62-13.16-1.81-26.09-5.21-39.13-7.89-1.23-.25-2.47-.49-3.91-.77-.18,1.69-.32,2.96-.5,4.58h-20.23c-.08-1.92-.41-3.96-.21-5.95.34-3.28-.85-4.76-4.11-5.76-20.77-6.39-40.93-14.28-59.66-25.45-14.93-8.91-28.62-19.28-38.04-34.34-5.18-8.28-7.88-17.24-7.87-27.09.05-99,.05-198-.09-297,0-2.67,1.96-3.62,2.65-5.45,7.24-19.15,21.9-31.52,38.39-42.12,20.49-13.18,42.98-21.95,66.14-29.07,8.35-2.57,16.83-4.74,25.28-6.99,1.13-.3,2.91-.51,3.56.1,5.45,5.16,10.72,10.53,16.45,16.26-8.98,2.27-17.21,4.2-25.35,6.44-26.39,7.27-52.12,16.24-75.49,30.9-8.79,5.51-16.9,11.86-23.26,20.19-9.83,12.88-9.87,25.6-.06,38.46,7.6,9.96,17.6,17.06,28.23,23.33,15.94,9.4,32.97,16.32,50.52,22.04.71.23,1.45.34,2.45.57Zm142.13,45.69c-40.86-2.66-81.16-7.93-121.21-17.87,0,1.77,0,3.06,0,4.34,0,86.16.01,172.32-.06,258.49,0,2.96.69,4.22,3.78,5.01,32.73,8.32,65.99,13.3,99.6,16.14,5.91.5,11.83.88,17.89,1.33v-267.44Zm162.34,261.57c.93,0,1.33.05,1.71,0,32.9-4.67,65.22-11.73,96.64-22.74,3.03-1.06,3.12-2.87,3.11-5.35-.03-85.77-.02-171.54-.03-257.31,0-1.36-.13-2.72-.21-4.49-33.29,11.35-67.11,18.1-101.22,22.87v267.02Zm-220.29-457.1c.62.61,2.18.45,3.28.34,17.92-1.78,35.8-4.15,53.76-5.33,54.21-3.55,108.3-2.05,162.14,5.48,5.32.74,8.8-.26,12.21-4.23,3.76-4.39,8.11-8.27,12.76-12.93-59.62-10.09-118.67-12.69-178-9.66-27.72,1.42-55.32,4.21-83.29,9.02,5.99,6.1,11.49,11.79,17.14,17.32Z"/>
</svg>