<?xml version="1.0" encoding="UTF-8"?>
<svg id="electric-gutair" xmlns="http://www.w3.org/2000/svg" viewBox="0 0 1920 768">
  <path id="gutair" d="m1072.25,123.94c-.61-3.58-1.07-6.37-1.57-9.16-1.43-7.87.52-11.01,8.44-12.88,26.08-6.14,52.18-12.2,78.28-18.28,7.62-1.78,15.23-3.59,22.86-5.3,5.58-1.25,9.13.17,10.96,4.23,1.81,3.98.47,7.75-4.22,11.01-23.94,16.62-47.98,33.11-71.82,49.88-3.7,2.6-7.2,5.97-9.72,9.71-34.02,50.58-67.9,101.25-101.65,152.01-2.51,3.78-4.5,8.2-5.56,12.6-19.85,82.34-39.53,164.73-59.24,247.1-.35,1.46-.31,3.27-1.18,4.28-1.95,2.26-4.16,5.4-6.64,5.78-2.46.38-6.18-1.52-7.9-3.61-3.35-4.07-5.71-8.96-8.44-13.54-15.35-25.75-30.73-51.47-45.94-77.29-1.8-3.06-3.7-3.81-7.16-3.53-32.37,2.64-64.75,5.06-97.13,7.55-24.24,1.86-48.49,3.75-72.73,5.56-2.11.16-4.78.51-6.29-.53-2.24-1.54-5.11-4.25-5.11-6.47,0-2.79,1.93-6.49,4.23-8.21,9.32-6.99,19.1-13.37,28.7-19.97,72.32-49.74,144.65-99.48,216.97-149.21,8.92-6.13,17.91-12.16,26.76-18.4,1.99-1.4,3.79-3.26,5.19-5.26,35.84-51.16,71.61-102.36,107.37-153.57,1.1-1.58,1.9-3.36,2.55-4.52Zm-99.18,228.91c-.36-.11-.72-.21-1.08-.32-3.43,5.09-6.82,10.2-10.29,15.26-4.47,6.52-8.2,7.29-14.63,2.92-7.71-5.24-15.39-10.54-23.03-15.9-5.99-4.2-6.68-8.27-2.5-14.39,3.34-4.9,6.8-9.72,10.21-14.57-.24-.26-.49-.53-.73-.79-70.49,48.48-140.97,96.95-212.57,146.2,3.14,0,4.75.11,6.35-.02,47.5-3.61,95-7.18,142.48-10.98,5.98-.48,9.6,1.56,12.59,6.66,14.4,24.56,29.06,48.98,43.63,73.44.88,1.47,1.85,2.89,3.35,5.23,15.59-65,30.91-128.87,46.23-192.74Zm-21.65,1.06c47.01-70.27,93.66-140.01,140.49-210.02-3.04-2.09-5.73-3.94-8.81-6.05-48.33,69.13-96.4,137.89-144.75,207.04,4.43,3.07,8.49,5.87,13.06,9.04Zm189.73-248.46c-.1-.41-.2-.81-.3-1.22-17.68,4.14-35.37,8.28-53.95,12.63,1.33,2.5,1.81,4.64,3.15,5.71,3.63,2.9,7.56,5.45,11.52,7.9.84.52,2.64.45,3.47-.12,12.08-8.22,24.08-16.58,36.1-24.9Zm-276.65,318.55c-1.93,3.9-.11,7.45,3.39,9.89,8.3,5.8,16.6,11.6,24.99,17.25,4.52,3.04,9.38,2.43,11.96-1.18,2.9-4.07,1.75-9.01-3.08-12.41-7.88-5.54-15.79-11.02-23.78-16.39-1.87-1.26-4.1-1.98-7.18-3.43-2.2,2.1-5.07,3.77-6.3,6.26Zm23.6-34.08c-1.92,3.72,0,7.16,3.27,9.48,8.13,5.75,16.32,11.42,24.54,17.02,5.02,3.42,10.11,2.95,12.75-.97,2.8-4.16,1.6-8.78-3.43-12.32-7.87-5.54-15.79-11.01-23.77-16.39-1.73-1.17-3.8-1.83-6.96-3.31-2.18,2.12-5.06,3.9-6.4,6.48Zm44.88,73.3c.14-4.49-3.62-8.27-8.15-8.19-4.35.08-7.89,3.66-7.87,7.97.01,4.33,3.53,7.86,7.9,7.91,4.38.06,7.99-3.36,8.13-7.69Zm-7.76,24.45c.18-4.63-3.3-8.24-7.94-8.24-4.38,0-7.93,3.49-7.97,7.82-.04,4.23,3.59,7.99,7.8,8.09,4.34.1,7.93-3.3,8.1-7.68Z"/>
</svg>