<?xml version="1.0" encoding="UTF-8"?>
<svg id="Layer_1" data-name="Layer 1" xmlns="http://www.w3.org/2000/svg" viewBox="0 0 1920 768">
  <path d="m825.74,278.17c2.41-7.67,3.98-15.74,7.39-22.94,10.11-21.4,26.43-36.53,49.03-43.99,10.85-3.58,22.06-6.37,33.32-8.35,14.19-2.5,22.66-10.83,27.9-23.53,3.4-8.24,6.34-16.7,12.06-23.81,13.74-17.07,37.24-24.28,57.81-16.75,8.97,3.28,17.36,8.14,26.02,12.28-.09.34-.18.69-.27,1.03.8-.7,1.63-1.38,2.4-2.12,18.73-18.02,37.4-36.11,56.23-54.03,4.1-3.9,7.48-8.1,9.72-13.31,1.48-3.43,3.3-6.71,4.95-10.02-4.53-6.28-5.02-8.66-2.38-11.35,2.37-2.42,5.05-2.18,9.93.83,2.01-1.92,4-3.82,5.96-5.7-3.18-4.77-3.41-7.78-.86-10.15,2.55-2.38,5.06-2.1,9.81,1.13,1.9-1.96,3.81-3.94,5.74-5.94-3.14-5.06-3.31-7.72-.59-10.15,2.5-2.23,5.28-1.9,9.3,1.04,2.29-1.31,4.54-2.6,6.79-3.88,2.9,0,5.81,0,8.71,0,7.47,1.83,14.43,4.6,20.16,10.02,7.63,7.23,12.1,15.89,12.46,26.47.2,5.69-.34,6.97-3.95,11.15,3.14,5.4,3.3,7.94.66,10.29-2.62,2.34-5.31,1.99-9.67-1.43-1.86,2.09-3.76,4.22-5.69,6.39,2.99,4.62,3.21,7.28.66,9.74-2.44,2.36-5.31,2.07-9.85-1.09-1.86,1.98-3.74,3.98-5.67,6.04,3.05,5.36,3.14,7.97.22,10.26-2.98,2.34-5.4,1.72-10.64-2.88-8.36,4.58-17.37,7.87-24.33,15.42-17.38,18.85-35.42,37.07-53.19,55.55-.74.77-1.42,1.6-1.12,2.13,4.14,8.66,9.04,17.04,12.26,26.03,9.14,25.44-3.73,53.97-28.48,64.95-7.7,3.41-15.42,6.89-22.69,11.1-6.79,3.94-10.24,10.61-12,18.25-2.74,11.87-5.01,23.93-8.81,35.47-9.32,28.31-28.96,46.73-57.26,55.38-17.6,5.38-34.95,2.2-51.01-5.99-32.07-16.35-56.37-40.8-72.8-72.88-4.15-8.1-6.62-16.84-7.65-25.93-.09-.82-.39-1.62-.59-2.43,0-4.11,0-8.23,0-12.34Zm204.86-117.78c-5.63-3.04-10.44-6.07-15.58-8.36-23.1-10.29-47.2-.56-56.83,22.75-1.34,3.24-2.65,6.48-4,9.71-6.69,16.03-17.81,26.76-35.42,29.89-5.71,1.02-11.36,2.31-17.03,3.56-17.44,3.85-33.44,10.44-45.65,24.18-18.22,20.49-23.48,43.3-12.42,69.08,6.05,14.09,15.09,26.1,25.56,37.13,12.4,13.06,25.89,24.71,42.33,32.5,11.47,5.43,23.57,8.77,36.21,6.61,24.53-4.19,41.78-18.43,52.66-40.56,5.72-11.63,8.19-24.26,10.32-36.87,2.96-17.46,11.93-30.05,28.19-37.26,3.97-1.76,7.99-3.43,12.04-5.02,28.32-11.07,36.32-44.59,13.5-72.19-.67.95-1.19,1.94-1.93,2.71-10.64,11.08-21.26,22.18-32.02,33.15-2,2.04-2.89,4.1-3,6.97-.89,23.06-23.31,40.17-45.81,35.11-18.69-4.21-31.76-21.47-30.12-39.78,1.81-20.16,16.93-34.69,36.89-35.54,1.35-.06,3.06-.32,3.96-1.17,12.54-11.9,24.97-23.93,38.14-36.62Zm-6.22,60.26c33.32-34.62,66.23-68.81,98.94-102.79-5.26-5.23-10.22-10.15-15.37-15.28-34.01,32.74-68.21,65.66-102.69,98.86,8.66,4.26,14.86,10.33,19.12,19.21Zm135.82-180.13c-.52.31-2.21.92-3.38,2.07-7.42,7.27-14.39,15.04-22.17,21.91-8.22,7.25-13.59,16.17-17.77,26.01-.42.99-.2,2.89.5,3.63,4.64,4.92,9.47,9.67,14.3,14.41.6.59,1.87,1.33,2.36,1.08,6.21-3.17,13.22-5.51,18.31-10,10.93-9.67,20.9-20.44,31.13-30.87,1.03-1.05,1.76-2.93,1.71-4.4-.38-12.03-11.66-23.25-25-23.83Zm-170.72,221.74c14.49.08,26.15-11.55,26.32-26.26.16-13.73-11.68-25.73-25.59-25.94-14.5-.22-26.5,11.49-26.61,25.97-.11,14.39,11.5,26.15,25.88,26.23Zm-111.89,19.91c-1.4,2.45-.3,4.93,1.65,6.88,18.53,18.54,37.04,37.09,55.62,55.59,2.96,2.95,6.53,3.04,9,.57,2.43-2.44,2.33-6.08-.59-9.01-18.41-18.49-36.86-36.94-55.37-55.33-1.28-1.27-3.14-1.96-5.38-3.31-1.86,1.68-3.92,2.85-4.93,4.62Z"/>
</svg>