<?xml version="1.0" encoding="UTF-8"?>
<svg id="Layer_1" data-name="Layer 1" xmlns="http://www.w3.org/2000/svg" viewBox="0 0 1920 768">
  <path d="m825.74,437.16c3.94-12.56,6.52-25.76,12.09-37.55,16.55-35.02,43.26-59.79,80.25-72,17.76-5.86,36.11-10.43,54.53-13.67,23.22-4.08,37.09-17.73,45.67-38.51,5.57-13.49,10.38-27.33,19.74-38.97,22.48-27.94,60.96-39.74,94.62-27.42,14.68,5.37,28.42,13.32,42.59,20.1-.15.56-.3,1.13-.45,1.69,1.31-1.15,2.67-2.26,3.93-3.47,30.66-29.5,61.22-59.1,92.04-88.43,6.7-6.38,12.24-13.26,15.9-21.78,2.41-5.62,5.4-10.98,8.11-16.41-7.41-10.27-8.21-14.17-3.9-18.57,3.88-3.95,8.26-3.56,16.25,1.36,3.29-3.15,6.55-6.26,9.76-9.33-5.2-7.81-5.58-12.73-1.41-16.62,4.18-3.89,8.28-3.44,16.05,1.86,3.1-3.21,6.24-6.45,9.4-9.71-5.15-8.28-5.42-12.63-.96-16.61,4.09-3.65,8.63-3.12,15.22,1.7,3.75-2.15,7.43-4.25,11.11-6.35,4.75,0,9.5,0,14.26,0,12.22,3,23.62,7.53,32.99,16.41,12.49,11.83,19.8,26,20.4,43.33.32,9.31-.55,11.4-6.46,18.25,5.14,8.84,5.41,12.99,1.09,16.84-4.29,3.82-8.7,3.26-15.83-2.34-3.05,3.42-6.15,6.9-9.32,10.46,4.9,7.57,5.25,11.91,1.08,15.94-4,3.86-8.69,3.38-16.12-1.78-3.04,3.24-6.11,6.52-9.28,9.89,4.99,8.78,5.13,13.05.36,16.8-4.87,3.83-8.84,2.82-17.41-4.72-13.69,7.5-28.43,12.88-39.82,25.24-28.44,30.85-57.98,60.68-87.07,90.92-1.21,1.26-2.32,2.62-1.84,3.48,6.77,14.17,14.79,27.9,20.07,42.6,14.96,41.63-6.11,88.34-46.61,106.3-12.6,5.59-25.24,11.27-37.14,18.18-11.12,6.45-16.76,17.36-19.64,29.87-4.48,19.43-8.2,39.17-14.42,58.05-15.26,46.33-47.4,76.48-93.72,90.64-28.81,8.81-57.2,3.6-83.49-9.8-52.49-26.76-92.26-66.78-119.15-119.28-6.79-13.26-10.83-27.56-12.53-42.44-.15-1.34-.63-2.65-.96-3.98,0-6.73,0-13.46,0-20.2Zm335.31-192.78c-9.21-4.98-17.09-9.93-25.51-13.68-37.8-16.85-77.25-.92-93.01,37.24-2.19,5.3-4.34,10.61-6.55,15.9-10.94,26.24-29.15,43.8-57.98,48.93-9.34,1.66-18.6,3.78-27.87,5.83-28.54,6.3-54.73,17.09-74.71,39.57-29.82,33.54-38.44,70.88-20.33,113.06,9.9,23.06,24.69,42.72,41.83,60.77,20.3,21.38,42.38,40.44,69.29,53.19,18.77,8.89,38.57,14.36,59.26,10.82,40.14-6.87,68.38-30.16,86.19-66.39,9.35-19.03,13.4-39.7,16.9-60.34,4.84-28.58,19.53-49.18,46.15-60.98,6.5-2.88,13.08-5.62,19.7-8.21,46.35-18.12,59.44-72.98,22.1-118.16-1.09,1.56-1.94,3.17-3.16,4.44-17.42,18.14-34.8,36.31-52.4,54.26-3.28,3.34-4.73,6.71-4.91,11.41-1.46,37.74-38.15,65.75-74.98,57.46-30.59-6.88-51.99-35.15-49.3-65.1,2.96-33,27.71-56.78,60.38-58.16,2.21-.09,5.01-.52,6.48-1.92,20.52-19.48,40.86-39.16,62.43-59.93Zm-10.19,98.63c54.54-56.67,108.41-112.63,161.94-168.25-8.61-8.56-16.72-16.62-25.16-25-55.66,53.59-111.64,107.47-168.08,161.81,14.18,6.98,24.32,16.91,31.3,31.44Zm222.31-294.83c-.84.5-3.61,1.51-5.53,3.39-12.15,11.9-23.56,24.62-36.29,35.86-13.45,11.87-22.24,26.47-29.09,42.57-.69,1.62-.32,4.72.83,5.94,7.59,8.06,15.5,15.83,23.4,23.58.99.97,3.06,2.18,3.87,1.77,10.17-5.18,21.64-9.01,29.96-16.37,17.89-15.83,34.2-33.45,50.96-50.53,1.68-1.71,2.88-4.8,2.8-7.2-.62-19.7-19.09-38.05-40.91-39Zm-279.43,362.94c23.72.13,42.81-18.91,43.08-42.98.26-22.48-19.12-42.11-41.89-42.45-23.72-.36-43.37,18.81-43.55,42.5-.18,23.55,18.82,42.8,42.35,42.94Zm-183.13,32.59c-2.29,4-.48,8.07,2.7,11.25,30.32,30.35,60.63,60.72,91.03,90.99,4.84,4.82,10.69,4.97,14.73.93,3.98-3.99,3.81-9.96-.96-14.74-30.14-30.26-60.33-60.46-90.62-90.56-2.1-2.08-5.14-3.21-8.81-5.42-3.04,2.75-6.41,4.66-8.06,7.55Z"/>
</svg>