<?xml version="1.0" encoding="UTF-8"?>
<svg id="heart" xmlns="http://www.w3.org/2000/svg" viewBox="0 0 1920 768">
  <path d="m697.91,305.43c.45-2.39.78-4.82,1.36-7.18,2.64-10.72,9.12-18.35,19.06-22.99,7.13-3.33,14.76-5.16,22.57-5.02,14.76.26,27.1,5.97,36.27,17.84.19.25.37.5.57.75.06.08.15.14.37.34.52-.7,1.02-1.4,1.56-2.07,7.09-8.76,16.29-14.04,27.3-16.06,12.17-2.23,23.7.15,34.37,6.15,8.76,4.93,14,12.73,15.85,22.55,2.26,11.97,1.04,23.56-4.83,34.45-4.51,8.36-10.3,15.8-16.53,22.91-11.23,12.81-23.68,24.4-35.95,36.18-4.85,4.66-9.62,9.41-14.38,14.18-5.14,5.16-8.84,5.28-14.06.26-11.54-11.11-23.13-22.16-34.56-33.38-10.02-9.84-19.76-19.95-27.78-31.55-4.56-6.59-8.54-13.49-10.07-21.5-.51-2.65-.75-5.35-1.11-8.03,0-2.61,0-5.22,0-7.83Zm80.4,91.78c.36-.33.63-.57.88-.82,6.86-6.64,13.72-13.28,20.59-19.91,11.38-10.97,22.8-21.93,32.56-34.41,3.45-4.42,6.6-9.14,9.36-14.02,4.66-8.26,5.23-17.24,3.41-26.4-1.33-6.71-5.19-11.65-11.29-14.71-6.65-3.33-13.73-4.9-21.17-4.37-7.8.56-14.63,3.54-20.43,8.79-4.45,4.03-6.99,9.12-8.2,14.96-.52,2.53-2.09,4.18-4.62,4.75-3.64.83-6.57-1.25-7.5-5.45-2.23-10.15-8.68-16.57-17.95-20.55-9.27-3.97-18.53-3.09-27.75.14-5.2,1.82-9.6,4.77-12.52,9.59-2.15,3.56-3.14,7.48-3.39,11.58-.43,7.11.22,14.04,3.51,20.54,4.4,8.7,10.53,16.14,16.96,23.34,14.83,16.6,31.67,31.16,47.55,46.92Z"/>
</svg>