<?xml version="1.0" encoding="UTF-8"?>
<svg id="magnifying_glass" data-name="magnifying glass" xmlns="http://www.w3.org/2000/svg" viewBox="0 0 1920 768">
  <path id="black_glass" data-name="black glass" d="m929,195c6.67,0,13.33,0,20,0,.94.29,1.86.72,2.83.85,74.48,9.9,113.8,90.76,75.6,155.48-.73,1.24-1.36,2.54-2.15,4.02,18.7,18.66,37.33,36.99,55.61,55.67,4.31,4.4,7.45,9.96,11.12,14.98v9c-2.84,7.83-8.18,13.16-16,16h-9c-4.89-3.57-10.3-6.63-14.59-10.81-17.77-17.32-35.2-35-52.76-52.53-1.16-1.15-2.38-2.24-3.67-3.44-1.79,1.05-3.34,1.98-4.91,2.88-57.53,33.45-130.93,4.85-150.47-58.73-2.04-6.64-3.09-13.57-4.6-20.37,0-6.67,0-13.33,0-20,.31-1.1.74-2.19.91-3.31,6.34-39.97,28.11-67.85,65.72-82.82,8.37-3.33,17.56-4.63,26.37-6.86Zm9.84,178.98c41.85.06,76.08-34.03,76.12-75.82.04-41.75-34.21-76.04-75.96-76.04-41.49,0-75.76,34.13-75.9,75.61-.15,41.77,34.04,76.18,75.74,76.24Zm6.32-12.27c2.31-.24,4.74-.31,6.87-1.09,1.93-.71,3.54-2.29,5.29-3.49-1.71-1.26-3.26-3.21-5.16-3.67-23.26-5.63-44.35-15.78-63.69-29.78-1.49-1.08-3.8-1.04-5.73-1.52.19,2.11-.27,4.59.68,6.27,12.25,21.62,31.1,32.45,54.79,33.65,2.96-.15,4.96-.16,6.94-.37Z"/>
</svg>