<?xml version="1.0" encoding="UTF-8"?>
<svg id="Maracas" xmlns="http://www.w3.org/2000/svg" viewBox="0 0 1920 768">
  <path d="m1042.98,363.79c73.08-18.08,145.01-35.87,217.64-53.83-.32,1.92-.48,3.37-.81,4.78-6.77,29.41-19.12,55.92-41.38,77.38-1.04,1.01-1.34,3.52-.95,5.08,6.79,26.91,13.74,53.79,20.65,80.67,16.85,65.66,33.77,131.31,50.51,197.01,5.22,20.5-4.82,40.5-23.92,48.65-23.77,10.14-51.18-2.79-57.71-27.62-10.17-38.72-19.99-77.52-29.95-116.29-13.4-52.15-26.8-104.3-40.18-156.46-.55-2.13-.81-3.98-3.86-4.44-29.89-4.54-54.27-19.33-75.53-39.71-4.78-4.58-9.15-9.56-14.51-15.21Zm-373.67-42.65c11.02,34.03,28.9,63.23,60.6,82.63,2.09,1.28,2.73,2.54,2.35,5-2.64,16.96-5.08,33.94-7.61,50.92-11.21,75.05-22.49,150.09-33.53,225.16-.85,5.76-.92,11.96.26,17.63,4.12,19.77,22.33,33.31,42.69,32.49,20.62-.83,37.24-15.85,40.28-36.45,1.45-9.83,2.85-19.67,4.32-29.49,8.58-57.3,17.18-114.6,25.75-171.91,4.05-27.06,8.02-54.12,12.16-81.17.25-1.63,1.39-3.96,2.72-4.48,28.61-11.19,50.15-30.71,67.78-54.91,1.1-1.5,2.07-3.09,3.47-5.21-74.19-10.67-147.57-21.23-221.25-31.82,0,1.1-.07,1.37,0,1.6Zm370.35-98.56c16.2,12.49,31.86,24.56,47.86,36.9,8.2-18.47,16.17-36.4,24.32-54.76,16.04,12.39,31.69,24.48,47.78,36.92,8.16-18.41,16.14-36.39,24.29-54.77,16.19,12.5,31.85,24.59,47.85,36.94,5.27-11.89,10.4-23.18,15.23-34.6.75-1.77.83-4.42.03-6.12-5.07-10.76-10.55-21.33-15.72-32.04-1.64-3.41-3.61-3.99-7.38-3.05-75.64,18.86-151.33,37.57-227.03,56.2-3.08.76-4.31,1.84-4.42,5.03-.6,17.35.74,34.55,3.9,51.62.18.95.59,2.1,1.3,2.67,5.68,4.54,11.46,8.97,17.71,13.83,8.26-18.62,16.19-36.51,24.28-54.75Zm-141.43,37.5c9.3-8.75,18.63-17.48,27.82-26.33.89-.85,1.43-2.53,1.36-3.79-.69-12.61-1.59-25.21-2.32-37.82-.16-2.81-1.66-3.65-4.22-3.92-3.92-.41-7.8-1.08-11.7-1.65-42.25-6.1-84.51-12.2-126.76-18.3-31.08-4.48-62.16-8.88-93.22-13.51-4.06-.61-5.98.28-7.67,4.08-6.74,15.19-12.18,30.77-15.78,46.96-.27,1.22-.68,2.78-.17,3.74,3.45,6.46,7.13,12.81,11.01,19.68,14.79-14.03,29.1-27.6,43.76-41.51,10.08,17.58,19.88,34.67,29.87,52.09,14.86-14.07,29.16-27.62,43.8-41.49,10.1,17.66,19.82,34.67,29.77,52.07,14.81-14.05,29.12-27.61,43.75-41.49,10.02,17.5,19.73,34.46,29.52,51.57.7-.22,1.01-.23,1.18-.39Zm98.8-80.27c72-17.79,144-35.58,216.16-53.42-.45-.91-.56-1.31-.8-1.59-18.05-21.28-39.27-38.51-66.06-48.08-33.29-11.88-65.18-9.15-94.73,10.78-22.1,14.91-36.47,35.82-45.91,60.07-3.96,10.17-6.73,20.8-10.04,31.21.46.34.91.68,1.37,1.02Zm-78.71-15.95c-.27-1.42-.34-2.19-.57-2.9-7.24-22.12-17.82-42.44-33.72-59.85-32.57-35.66-78.55-45.75-122.19-26.5-25.13,11.09-44.47,29.06-60.42,50.78-1.43,1.95-2.76,3.99-4.6,6.68,74.33,10.67,147.73,21.2,221.51,31.78Zm275.27,60.59c-8.2,18.49-16.14,36.38-24.29,54.76-16.1-12.44-31.72-24.51-47.77-36.92-8.23,18.58-16.17,36.48-24.28,54.78-16.15-12.47-31.79-24.55-47.83-36.93-8.22,18.52-16.16,36.42-24.28,54.7-5.69-4.32-10.9-8.28-16.11-12.23-.22,1.44.01,2.43.45,3.32,5.49,11.14,11.06,22.23,16.48,33.4,1.45,2.99,3.29,3.57,6.52,2.75,19.46-4.96,38.97-9.72,58.46-14.54,56.44-13.96,112.88-27.92,169.34-41.8,2.92-.72,4.19-1.96,4.01-4.95-.92-15.17-1.64-30.36-2.67-45.52-.28-4.09-1.43-8.12-2.18-12.17-.32.02-.64.04-.97.05-5.62,12.58-11.24,25.17-17.06,38.21-16.1-12.42-31.74-24.49-47.83-36.9Zm-533.58,27.37c.79,13.38,1.62,26.76,2.37,40.14.15,2.6,1.81,2.98,3.94,3.29,24.58,3.5,49.16,7.05,73.73,10.59,53.19,7.66,106.38,15.29,159.55,23.05,3.07.45,4.4-.41,5.64-3.07,7.45-16.03,13.14-32.62,16.84-49.86.36-1.7.62-3.42.92-5.13-.26-.15-.52-.29-.78-.44-10.07,9.53-20.14,19.07-30.56,28.94-10.03-17.49-19.83-34.6-29.85-52.08-14.8,14.01-29.12,27.56-43.81,41.46-10.1-17.64-19.83-34.65-29.79-52.06-14.85,14.06-29.16,27.61-43.79,41.46-10.14-17.67-19.89-34.68-29.85-52.04-14.88,14.1-29.18,27.66-43.73,41.45-3.54-6.14-6.75-11.7-10.41-18.05-.26,1.44-.44,1.9-.41,2.35Z"/>
</svg>