<?xml version="1.0" encoding="UTF-8"?>
<svg id="Maracas" xmlns="http://www.w3.org/2000/svg" viewBox="0 0 1920 768">
  <path d="m1013.79,352.04c84.16-19.93,167-39.56,250.63-59.37-.37,2.12-.56,3.72-.93,5.27-7.79,32.43-22.01,61.67-47.65,85.34-1.2,1.11-1.55,3.88-1.09,5.61,7.81,29.68,15.83,59.32,23.78,88.97,19.41,72.42,38.89,144.82,58.16,217.27,6.01,22.6-5.55,44.66-27.55,53.65-27.37,11.18-58.94-3.08-66.45-30.46-11.71-42.7-23.02-85.5-34.49-128.25-15.43-57.51-30.86-115.03-46.27-172.55-.63-2.35-.93-4.39-4.44-4.9-34.42-5.01-62.5-21.32-86.98-43.8-5.5-5.05-10.53-10.55-16.71-16.77Zm-430.32-47.04c12.69,37.53,33.28,69.73,69.79,91.13,2.41,1.41,3.14,2.81,2.7,5.52-3.04,18.7-5.84,37.44-8.76,56.15-12.91,82.77-25.9,165.52-38.61,248.31-.98,6.36-1.06,13.19.3,19.44,4.74,21.81,25.72,36.73,49.16,35.83,23.75-.91,42.88-17.49,46.39-40.2,1.67-10.84,3.28-21.69,4.98-32.53,9.88-63.2,19.78-126.39,29.65-189.58,4.66-29.84,9.23-59.69,14.01-89.51.29-1.8,1.6-4.37,3.13-4.94,32.95-12.34,57.75-33.87,78.05-60.56,1.26-1.66,2.38-3.41,4-5.74-85.43-11.77-169.94-23.41-254.79-35.1,0,1.21-.08,1.52.01,1.77Zm426.5-108.69c18.65,13.77,36.69,27.09,55.11,40.69,9.45-20.37,18.62-40.14,28.01-60.39,18.47,13.66,36.49,27,55.03,40.72,9.4-20.3,18.58-40.14,27.97-60.4,18.65,13.79,36.68,27.11,55.1,40.73,6.07-13.11,11.98-25.56,17.54-38.15.86-1.95.95-4.88.03-6.75-5.83-11.87-12.14-23.52-18.1-35.34-1.89-3.76-4.16-4.4-8.49-3.37-87.11,20.8-174.27,41.44-261.45,61.98-3.54.83-4.96,2.03-5.09,5.55-.69,19.14.85,38.11,4.49,56.93.2,1.05.68,2.32,1.49,2.95,6.54,5.01,13.19,9.89,20.4,15.25,9.51-20.53,18.65-40.27,27.96-60.38Zm-162.87,41.36c10.71-9.65,21.45-19.27,32.04-29.04,1.02-.94,1.65-2.79,1.57-4.18-.8-13.91-1.83-27.81-2.67-41.71-.19-3.1-1.92-4.03-4.86-4.33-4.51-.46-8.99-1.19-13.48-1.81-48.66-6.73-97.32-13.46-145.98-20.18-35.79-4.94-71.59-9.79-107.35-14.9-4.67-.67-6.89.31-8.83,4.5-7.76,16.76-14.03,33.93-18.17,51.79-.31,1.35-.79,3.07-.2,4.13,3.97,7.13,8.21,14.13,12.68,21.7,17.03-15.47,33.51-30.44,50.4-45.78,11.61,19.38,22.89,38.23,34.4,57.44,17.11-15.52,33.58-30.46,50.44-45.75,11.63,19.47,22.83,38.24,34.29,57.43,17.06-15.49,33.53-30.45,50.38-45.75,11.53,19.29,22.72,38,34,56.87.8-.24,1.16-.25,1.36-.43Zm113.78-88.53c82.91-19.62,165.82-39.24,248.93-58.91-.52-1.01-.64-1.44-.92-1.76-20.79-23.47-45.22-42.47-76.08-53.02-38.34-13.11-75.06-10.09-109.09,11.89-25.46,16.44-42,39.51-52.87,66.25-4.56,11.22-7.75,22.93-11.56,34.42.53.37,1.05.75,1.58,1.12Zm-90.65-17.59c-.32-1.57-.39-2.41-.66-3.2-8.33-24.4-20.52-46.8-38.83-66-37.51-39.32-90.46-50.46-140.72-29.22-28.94,12.23-51.21,32.04-69.58,56-1.65,2.15-3.17,4.4-5.3,7.37,85.6,11.76,170.12,23.38,255.09,35.05Zm317,66.82c-9.44,20.39-18.58,40.12-27.97,60.39-18.55-13.72-36.53-27.03-55.01-40.71-9.48,20.49-18.62,40.23-27.96,60.41-18.6-13.76-36.61-27.07-55.08-40.73-9.47,20.42-18.61,40.16-27.96,60.33-6.56-4.77-12.55-9.13-18.55-13.49-.26,1.59.01,2.68.52,3.66,6.32,12.28,12.74,24.52,18.97,36.84,1.67,3.3,3.78,3.94,7.51,3.03,22.41-5.47,44.87-10.72,67.32-16.04,65-15.39,129.99-30.8,195.01-46.1,3.37-.79,4.82-2.16,4.61-5.46-1.06-16.73-1.88-33.48-3.08-50.2-.32-4.51-1.64-8.95-2.51-13.42-.37.02-.74.04-1.11.06-6.47,13.88-12.94,27.76-19.65,42.14-18.54-13.7-36.55-27.01-55.08-40.7Zm-614.47,30.18c.91,14.76,1.86,29.51,2.73,44.27.17,2.87,2.09,3.29,4.54,3.62,28.31,3.86,56.61,7.77,84.91,11.68,61.25,8.45,122.5,16.87,183.73,25.42,3.53.49,5.07-.45,6.49-3.39,8.58-17.68,15.13-35.97,19.39-54.98.42-1.87.71-3.77,1.06-5.66-.3-.16-.6-.32-.9-.49-11.59,10.51-23.19,21.03-35.19,31.91-11.55-19.29-22.84-38.16-34.38-57.43-17.05,15.45-33.53,30.39-50.45,45.72-11.63-19.46-22.84-38.22-34.31-57.42-17.1,15.5-33.58,30.45-50.43,45.72-11.67-19.49-22.91-38.24-34.38-57.39-17.13,15.55-33.61,30.5-50.36,45.71-4.08-6.78-7.77-12.9-11.99-19.9-.3,1.59-.51,2.1-.48,2.59Z"/>
</svg>