<?xml version="1.0" encoding="UTF-8"?>
<svg id="Layer_1" data-name="Layer 1" xmlns="http://www.w3.org/2000/svg" viewBox="0 0 1920 768">
  <path d="m984.85,594.12c-69.15,0-138.29,0-207.44,0-19.56,0-29.46-9.93-29.46-29.53,0-107.98-.05-215.95.04-323.93.02-21.58,6.87-41.31,18.3-59.31,23-36.21,57.74-49.76,99.04-50.16,17.94-.17,35.55,1.78,52.5,7.98,23.07,8.45,40.28,24.1,54,44.06,15.51,22.56,25.28,47.89,35.46,73.02,10.08,24.89,22.19,48.62,36.81,71.25,16.97,26.27,40.81,40.24,71.13,44.36,13.84,1.88,27.82,2.84,41.58,5.14,29.7,4.97,49.19,22.92,60.67,50.05,12.41,29.34,14.54,60.32,13.09,91.62-.75,16.11-2.57,32.19-4.44,48.22-1.87,16.01-15.06,27.09-31.84,27.2-18.99.12-37.99.03-56.98.03-50.82,0-101.64,0-152.45,0Zm-216.25-24.59h429.28v-93.31h-37.58v68.18h-26.99v-68.16h-21.73v68.19h-26.99v-68.2h-21.64v68.27h-26.72v-68.22h-22.03v68.23h-26.66v-68.19h-21.97v68.19h-26.48v-68.29h-22.05v68.32h-26.78v-68.25h-21.89v68.25h-26.9v-68.29h-21.78v68.33h-26.64v-68.38h-24.46v93.31Z"/>
</svg>