<?xml version="1.0" encoding="UTF-8"?>
<svg id="record_player" data-name="record player" xmlns="http://www.w3.org/2000/svg" viewBox="0 0 1920 768">
  <path id="player" d="m1172.04,339.95c1.51,30.94-5.27,60.51-22.73,87.06-27.2,41.34-74.69,52.72-118.14,28.72-35.4-19.56-58.58-49.94-74.24-86.26-19.57-45.38-25.14-92.31-11.4-140.47,6.38-22.36,17.26-42.42,35.79-57.09,28.89-22.87,60.5-24.49,93.15-9.15,35.37,16.62,58.53,45.34,75.38,79.55,15.02,30.48,23.53,62.66,22.2,97.63Zm-111.85,216.62c-.01-15.08-5.3-19-20.1-15.03-53.01,14.25-106.04,28.42-159.02,42.78-7.51,2.04-14.07,1.39-20.43-3.33-6.16-4.58-12.71-8.62-19.07-12.93-17.16-11.61-34.27-23.29-51.46-34.85-6.87-4.61-12.22-2.7-12.29,4.51-.14,14.67-.12,29.35.46,44,.11,2.89,2.34,6.68,4.77,8.35,27.04,18.6,54.22,37,81.64,55.05,2.98,1.96,7.96,2.65,11.47,1.77,26.61-6.73,53.08-13.98,79.58-21.1,34.59-9.3,69.17-18.63,104.45-28.14,0-14.11,0-27.6,0-41.09Zm-79.77-7.85c11.43-3.9,22.66-9.93,32.23-17.27,10.21-7.83,9.69-19.11.04-27.68-5.63-5-12.31-9.93-19.36-12-16.88-4.96-34.08-9.84-51.48-11.8-36.21-4.08-72.19-1.72-106.59,11.69-7.67,2.99-15.18,7.38-21.49,12.65-10.87,9.08-10.78,20.85.08,29.84,5.99,4.96,13.08,9.04,20.29,11.97,22.75,9.24,46.81,11.85,71.15,12.41,25.56.63,50.92-1.53,75.13-9.79Zm-46.96-34.98c5.34,2.14,5.36,6.74.14,9.21-13.79,6.53-27.96,6.58-41.8.14-4.96-2.31-5.09-6.68-.09-8.79,6.7-2.83,14.05-4.13,21.15-6.1,7.32,1.9,14.24,3,20.59,5.55Zm-74.94-178.28c-10.03,4.13-17.96,11.82-20.79,23.13-5.59,22.42,13.36,43.24,37.66,41.93,14.17-.76,28.39-1.29,42.57-1.04,10.35.18,20.68,1.8,31.72,2.84-15.38-34.87-25.11-70.84-29.88-110.21-17.53,20.77-38.07,33.79-61.29,43.36Zm-22.69,111.59c-.44-14.45-5.87-29.06,1.08-43.37.44-.91-.21-2.61-.79-3.72-4.69-8.94-9.48-17.83-14.51-27.23-11.32,9.48-19.66,22.34-19.88,37.96-.28,20.16,2.05,40.36,3.36,60.54.47,7.22,1.27,14.41,1.91,21.53,10.66-5.85,20.37-11.17,31.05-17.03-.71-8.79-1.93-18.72-2.23-28.67Z"/>
</svg>