<?xml version="1.0" encoding="UTF-8"?>
<svg id="record_player" data-name="record player" xmlns="http://www.w3.org/2000/svg" viewBox="0 0 1920 768">
  <path id="player" d="m1060.21,277.78c1.08,22.12-3.77,43.27-16.25,62.25-19.45,29.56-53.41,37.7-84.48,20.54-25.32-13.99-41.89-35.71-53.09-61.68-13.99-32.45-17.98-66-8.15-100.44,4.56-15.99,12.34-30.34,25.59-40.82,20.66-16.35,43.26-17.51,66.6-6.54,25.29,11.88,41.85,32.42,53.9,56.89,10.74,21.8,16.82,44.8,15.87,69.81Zm-79.98,154.89c0-10.78-3.79-13.59-14.37-10.74-37.9,10.19-75.82,20.32-113.71,30.59-5.37,1.46-10.06,1-14.61-2.38-4.4-3.27-9.09-6.16-13.64-9.24-12.27-8.31-24.5-16.66-36.8-24.92-4.91-3.3-8.74-1.93-8.78,3.22-.1,10.49-.08,20.99.33,31.46.08,2.07,1.67,4.78,3.41,5.97,19.33,13.3,38.77,26.46,58.37,39.36,2.13,1.4,5.69,1.9,8.2,1.26,19.02-4.81,37.95-9.99,56.91-15.09,24.73-6.65,49.46-13.32,74.68-20.12,0-10.09,0-19.73,0-29.38Zm-57.04-5.61c8.17-2.79,16.2-7.1,23.05-12.35,7.3-5.6,6.93-13.67.03-19.8-4.03-3.58-8.8-7.1-13.85-8.58-12.07-3.54-24.37-7.04-36.81-8.44-25.89-2.92-51.62-1.23-76.22,8.36-5.49,2.14-10.85,5.28-15.37,9.05-7.77,6.49-7.71,14.91.06,21.34,4.28,3.54,9.35,6.46,14.51,8.56,16.27,6.61,33.47,8.47,50.88,8.87,18.28.45,36.41-1.1,53.72-7Zm-33.58-25.01c3.82,1.53,3.83,4.82.1,6.59-9.86,4.67-19.99,4.71-29.89.1-3.54-1.65-3.64-4.77-.06-6.29,4.79-2.03,10.04-2.96,15.12-4.36,5.23,1.36,10.19,2.15,14.72,3.97Zm-53.59-127.48c-7.18,2.96-12.85,8.45-14.86,16.54-4,16.03,9.55,30.92,26.93,29.98,10.13-.55,20.3-.92,30.44-.74,7.4.13,14.79,1.29,22.68,2.03-10.99-24.94-17.95-50.66-21.37-78.81-12.54,14.85-27.22,24.16-43.82,31Zm-16.22,79.79c-.32-10.33-4.2-20.78.77-31.01.32-.65-.15-1.87-.56-2.66-3.35-6.4-6.78-12.75-10.37-19.47-8.1,6.78-14.06,15.97-14.22,27.14-.2,14.42,1.46,28.86,2.4,43.29.34,5.16.91,10.3,1.37,15.39,7.62-4.18,14.57-7.99,22.2-12.18-.51-6.29-1.38-13.38-1.6-20.5Z"/>
</svg>