<?xml version="1.0" encoding="UTF-8"?>
<svg id="saxophone" xmlns="http://www.w3.org/2000/svg" viewBox="0 0 1920 768">
  <path d="m1112.13,60.99c8.92,3.26,18.53,5.33,26.65,10,37.36,21.46,45.98,72.97,16.8,104.65-23.53,25.54-48.79,49.47-73.33,74.06-1.68,1.69-3.74,3.01-5.35,4.28,3.6,3.81,6.43,6.82,9.3,9.86,7.75-5.24,12.35-5.42,16.35-.54,3.85,4.7,2.65,9.8-3.83,16.31-3.66,3.66-7.31,7.33-10.98,10.98-6.1,6.05-10.72,7.01-15.49,3.27-4.47-3.51-4.7-8.27-.55-15.63-2.9-2.84-5.87-5.76-8.97-8.81-3.85,3.95-7.57,7.77-12.13,12.45,4.66,4.44,9.48,8.91,14.14,13.54,3.45,3.41,4.73,7.5,2.52,12.09-2.95,6.11-10.23,7.06-15.9,2.06-2.49-2.2-4.83-4.59-7.08-7.03-2.24-2.43-4.28-5.04-6.65-7.85-2.37,2.24-3.85,3.58-5.26,4.98-61.3,61.29-122.6,122.59-183.89,183.88-.52.52-1.04,1.05-1.57,1.57-2.28,2.22-4.23,4.81-1.17,7.51,3.09,2.72,5.39.28,7.34-2.13,15.43-19.02,32.66-36.2,51.97-51.29,28.95-22.62,60.87-39.63,95.83-50.91,3.9-1.26,6.41-3.05,8.16-7.11,5.29-12.26,18.1-18.04,32.3-15.3,12.26,2.37,21.33,12.85,21.84,25.88.35,9.04.12,18.11.12,27.17,0,43.99-.02,87.98.01,131.97,0,11.71-4.4,21.06-15.07,26.33-10.32,5.1-20.99,4.83-30.37-2.17-3.95-2.95-7.03-7.54-9.38-11.98-1.51-2.84-3-4.13-5.94-4.67-31.69-5.83-58,3.8-78.94,27.94-17.24,19.87-38.05,33.93-63.9,39.39-43.98,9.3-82.41-2.25-111.75-36.04-33.55-38.64-38.13-82.65-16.27-128.98,6.87-14.56,17.56-26.37,29.77-36.79,51.29-43.81,102.57-87.63,153.85-131.45,1.38-1.18,2.67-2.45,4.68-4.31-1.93-1.56-3.61-2.91-5.62-4.54-1.14.82-2.4,1.81-3.75,2.65-4.35,2.71-8.61,2.26-12.1-1.29-3.51-3.57-4.3-8.28-.93-12.06,6-6.74,12.45-13.13,19.14-19.19,3.78-3.43,8.39-2.76,12.09.61,3.54,3.22,4.01,7.31,1.9,11.61-.55,1.12-1.32,2.13-2.29,3.69,2.24,1.86,4.33,3.6,6.87,5.71,5.1-4.36,10.37-8.87,16.14-13.8-4.13-4.07-7.97-7.72-11.67-11.52-5.02-5.17-5.46-11.05-1.27-15.15,4.37-4.28,9.71-3.86,15.14,1.47,4.08,4.01,7.91,8.26,12.25,12.82,3.96-3.35,7.44-6.26,10.89-9.21,42.71-36.49,85.43-72.99,128.13-109.49,1.26-1.08,3.17-2.06,3.51-3.41.61-2.39,1.24-5.87,0-7.32-1.2-1.4-4.74-1.15-7.21-.97-1.23.09-2.35,1.66-3.51,2.57-10.98,8.62-26.37,8.91-36.74-.51-11.75-10.67-22.79-22.15-33.92-33.49-3.99-4.07-3.82-9.8-.35-13.54,3.6-3.87,9.57-4.23,13.91-.17,3.61,3.38,6.58,7.46,10.12,11.58,12.78-14.31,27.83-21.07,44.75-24.22,5.55,0,11.09,0,16.64,0Zm-46.47,37.12c10.82,12.14,12.07,12.32,25.21,3.85,10.89-7.02,25.38-4.6,33.36,5.57,9.11,11.61,7.01,26.17-5.37,36.75-44.26,37.83-88.53,75.63-132.79,113.45-1.89,1.62-3.73,3.29-6.47,5.72,2.94,2.48,5.45,4.16,7.43,6.33,4.31,4.73,4.27,10.51.23,14.33-3.88,3.67-9.46,3.6-13.91-.65-2.65-2.53-4.71-5.67-7.18-8.73-6.54,5.61-11.83,10.14-17.97,15.41,3.34,2.96,6.39,5.35,9.07,8.11,4.91,5.04,5.22,10.56,1.13,14.75-4.12,4.22-9.68,4.02-14.76-.81-3.3-3.13-6.31-6.57-9.5-9.93-1.87,1.54-3.02,2.45-4.13,3.39-51.86,44.3-103.76,88.54-155.54,132.92-29.58,25.35-41.19,57.17-33.84,95.68,7.54,39.51,45.6,72.59,85.77,74.72,33.3,1.77,60.49-10.13,82.29-35.29,23.97-27.66,54.25-39.84,90.83-35.66,2.09.24,4.19.46,6.35.7v-131.15c-.76,0-1.13-.09-1.45.01-38.48,12.99-73.14,32.74-102.95,60.32-12.71,11.76-23.88,25.18-35.84,37.75-6.36,6.69-14.14,9.22-23.19,6.81-8.98-2.38-14.82-8.2-17.03-17.18-2.45-9.95,1.36-17.84,8.43-24.89,61.51-61.36,122.89-122.84,184.38-184.22,1.54-1.54,3.76-2.39,5.48-3.45-10.85-13.29-12.26-17.3-7.22-21.62,9.3-7.96,14.38,1.15,20.18,5.78,3.97-4.12,7.75-8.04,11.54-11.98-9.07-11.27-10.54-15.56-5.71-19.78,9.35-8.17,14.29,1.27,20.42,5.91.85-.7,1.6-1.23,2.24-1.86,24.19-24.17,48.4-48.33,72.51-72.58,2.85-2.86,5.52-6.04,7.64-9.46,14.31-23.03,8.74-51.11-13.21-67.43-19.78-14.7-48.98-11.11-66.42,8.39Zm-22.01,374.98c0-18.48,0-36.97,0-55.45,0-8.13.13-16.27-.09-24.4-.15-5.85-3.5-8.66-9.33-8.43-5.95.24-8.48,3.5-8.49,11.17-.02,51.2,0,102.41,0,153.61,0,1.11-.06,2.23.08,3.32.72,5.69,4.9,8.76,10.58,7.83,5.09-.84,7.22-3.63,7.23-10,.05-25.88.02-51.76.02-77.64Zm-130.97-129.29c.05,5.27,4.92,9.83,10.18,9.53,5.16-.29,9.39-4.9,9.17-9.97-.22-5.05-4.9-9.46-9.88-9.31-5.02.14-9.51,4.78-9.47,9.76Zm-15.26,15.39c-5.35,0-9.46,4.05-9.54,9.37-.08,5.53,4.27,9.84,9.78,9.71,5.21-.13,9.36-4.44,9.31-9.67-.06-5.26-4.27-9.41-9.54-9.41Zm-13.84,32.8c-.08-5.11-4.5-9.42-9.66-9.42-5.49,0-9.78,4.48-9.55,9.97.23,5.29,4.5,9.26,9.83,9.13,5.16-.13,9.45-4.56,9.37-9.68Z"/>
</svg>