<?xml version="1.0" encoding="UTF-8"?>
<svg id="trumpt" xmlns="http://www.w3.org/2000/svg" viewBox="0 0 1920 768">
  <path id="tube" d="m896.77,592.86c-.84.72-1.77,1.42-2.58,2.24-10.64,10.62-21.23,21.28-31.93,31.84-1.91,1.89-2.56,3.41-1.5,6.19,3.31,8.72.08,18.08-7.53,23.16-7.48,4.99-17.56,4.27-24.24-2.28-12.83-12.56-25.53-25.26-38.08-38.1-5.87-6-7.08-13.41-3.87-21.07,3.22-7.69,9.43-11.49,17.83-11.96,1.9-.11,4.22-.92,5.53-2.22,45.49-45.36,90.89-90.81,136.29-136.26.74-.75,1.42-1.56,1.88-2.06-3.8-3.82-7.5-7.54-11.9-11.96-3.43,3.98-7.31,8.48-11.13,12.92-5.04-5.14-9.29-9.48-13.28-13.54,11.04-10.9,22.41-22.14,33.79-33.39,3.52,3.74,7.67,8.15,12.43,13.2-3.49,2.89-7.56,6.26-11.47,9.51,4.78,4.74,8.52,8.45,12.16,12.05,10.17-10.3,20.59-20.83,30.95-31.32-3.45-3.35-7.23-7.02-11.63-11.29-3.37,3.89-7,8.08-10.51,12.14-4.99-5.15-9.28-9.58-13.43-13.87,10.84-10.79,22.11-22,33.31-33.14,3.96,4.03,8.21,8.36,12.92,13.16-3.82,3.33-7.98,6.98-12.05,10.53,4.82,4.62,8.69,8.32,12.43,11.91,9.79-9.8,20.01-20.02,30.05-30.06-3.55-3.64-7.22-7.39-11.37-11.64-3.61,4.03-7.31,8.15-10.95,12.21-5.03-5.13-9.35-9.54-13.63-13.9,11.07-10.89,22.42-22.05,33.53-32.98,3.94,3.95,8.3,8.33,13.29,13.34-3.77,3.37-7.92,7.08-11.91,10.65,4.22,4.2,7.94,7.91,11.49,11.44,10.17-10.36,20.64-21.04,30.92-31.52-3.01-2.98-6.84-6.75-11.2-11.05-3.23,3.64-6.97,7.86-10.78,12.16-5.05-5.33-9.22-9.75-13.15-13.9,10.89-10.79,22.27-22.05,33.54-33.22,3.6,3.72,7.9,8.17,12.93,13.38-3.76,3.18-8,6.77-12.1,10.24,4.51,4.61,8.27,8.45,12.65,12.92,6.64-6.84,13.21-13.77,19.95-20.52,29.31-29.37,58.65-58.73,88.06-88,2.93-2.92,4.83-5.99,5.72-10.11,8.65-39.92,16.44-79.97,19.17-120.82.82-12.36.83-24.65-2.16-36.88-2.41-9.86,6.34-18.03,15.73-14.14,7.97,3.31,15.43,8.32,22.35,13.58,26.52,20.17,50.57,43.16,74.23,66.54,27.07,26.75,53.4,54.22,76.67,84.41,5.34,6.93,10.26,14.27,14.58,21.87,2.34,4.13,4.01,9.17,4.22,13.88.46,9.93-9.16,17.21-18.58,13.57-16.89-6.53-34.18-5.91-51.57-4.67-34.73,2.48-68.72,9.41-102.42,17.85-1.01.25-2.19.54-2.88,1.23-6.11,6.07-12.13,12.23-18.5,18.69,3.94,1.8,7.69,3.39,11.32,5.19,75.64,37.51,92.42,137.42,32.82,197.5-56.86,57.32-114.14,114.22-171.31,171.23-25.12,25.05-55.64,37.94-91,36.53-51.42-2.05-88.45-26.89-110.27-73.8-1.06-2.29-1.98-4.64-3-6.95-.09-.2-.38-.31-.81-.64Zm128.56,8.56c19.13-.21,33.44-6,45.25-17.71,13.6-13.48,27.12-27.05,40.66-40.58,35.18-35.16,70.47-70.2,105.47-105.53,14.12-14.25,19.72-31.87,16.36-51.59-4.05-23.79-17.95-40.21-40.95-47.54-22.97-7.32-43.71-2.02-61.03,14.84-16.77,16.33-33.16,33.03-49.72,49.58-32.26,32.25-64.86,64.16-96.63,96.88-18.01,18.55-21.99,41.16-11.97,64.96,10.06,23.91,29.38,35.44,52.55,36.69Z"/>
  <path id="Air_tubes" data-name="Air tubes" d="m1152.41,627.49l-7.94,7.94c-4.67,4.67-12.3,4.67-16.97,0l-153.5-153.5c-4.67-4.67-4.67-12.3,0-16.97l7.94-7.94c4.67-4.67,12.3-4.67,16.97,0l153.5,153.5c4.67,4.67,4.67,12.3,0,16.97Zm121.51-133.89l-153.5-153.5c-4.67-4.67-12.3-4.67-16.97,0l-7.94,7.94c-4.67,4.67-4.67,12.3,0,16.97l153.5,153.5c4.67,4.67,12.3,4.67,16.97,0l7.94-7.94c4.67-4.67,4.67-12.3,0-16.97Zm-47.4,40.4l-153.5-153.5c-4.67-4.67-12.3-4.67-16.97,0l-7.94,7.94c-4.67,4.67-4.67,12.3,0,16.97l153.5,153.5c4.67,4.67,12.3,4.67,16.97,0l7.94-7.94c4.67-4.67,4.67-12.3,0-16.97Zm-36.6,39.01l-153.5-153.5c-4.67-4.67-12.3-4.67-16.97,0l-7.94,7.94c-4.67,4.67-4.67,12.3,0,16.97l153.5,153.5c4.67,4.67,12.3,4.67,16.97,0l7.94-7.94c4.67-4.67,4.67-12.3,0-16.97Z"/>
</svg>