<?xml version="1.0" encoding="UTF-8"?>
<svg id="Layer_1" data-name="Layer 1" xmlns="http://www.w3.org/2000/svg" viewBox="0 0 1920 768">
  <path d="m1005.36,365.82c-3.97.78-7.71.87-11.01,2.27-19.36,8.15-25.73,28.73-14.24,48.1,5.73,9.66,12.86,18.37,19.98,26.84,18.26,21.72,36.74,43.21,55.45,64.44,4.09,4.64,4.75,8.11.65,12.28-8.72-3.36-17.2-7.31-26-9.89-20.74-6.09-33.44,2.88-39.03,24.06-3.17,12.03,3.29,29.02,12.76,36.32,2.64,2.03,5.27,4.07,9.36,7.21-12.27,9.02-23.29,17.95-34.99,25.54-20.37,13.22-42.48,21.79-65.62,26.05-24.27,4.46-48.59,4.41-73.04-.58-22.82-4.65-44.43-12.81-64.5-25.35-27.79-17.36-51.35-40.53-69.87-69.85-24.94-39.48-38.29-83.3-39.47-131.86-1.45-59.78,14.93-112.8,48.43-158.76,24.06-33.02,54.32-56.81,90.26-71.48,34.08-13.91,69.07-18.02,104.6-11.81,39.76,6.95,75.18,25.4,105.82,55.34,24.77,24.2,43.39,53.19,56.3,86.95.71,1.86.39,4.67-.3,6.67-.93,2.71-3.07,4.89-4,7.6-1.38,4.03-2.14,8.33-3.33,13.17-4.71-4.79-10.09-8.87-13.84-14.36-7.66-11.2-25.63-11.56-36.99-3.14-14.08,10.44-20.28,33.96-9.07,49.98.81,1.16,1.13,2.76,1.71,4.25Zm-37.42-166.97c-26.55-19.64-55.24-27.87-86.71-25.65v110.42c13,3.59,25.82,7.13,39.29,10.84,15.18-30.61,31.11-62.72,47.42-95.61Zm-2.73,195.7c.27-51.76-37.05-94.8-83.64-94.91-47.58-.11-84.74,41.49-85.17,94.8-.42,52.2,38.32,95.08,84.39,95.21,46.38.13,84.39-42.69,84.42-95.1Zm324.79,188.47c-7.65-25.77-14.31-51.88-23.18-77-7.53-21.35-15.91-42.77-26.9-62.01-20.35-35.63-42.8-69.73-64.61-104.29-2.09-3.31-5.56-5.84-8.82-7.81-4.26-2.58-9.52-2.6-12.08,2.14-1.76,3.27-1.84,8.87-.7,12.68,1.79,5.97,4.96,11.52,8.05,16.87,8.55,14.78,17.57,29.23,25.98,44.11,2.77,4.89,6.09,10.19,3.91,17.91-2.28-1.98-4.25-3.2-5.66-4.99-16.29-20.55-32.66-41.01-48.65-61.85-10.39-13.53-20.1-27.72-30.28-41.45-3.3-4.45-7.81-6.4-13.01-5.1-12.21,3.05-16.47,16.76-8.35,28,17.37,24.04,35.11,47.75,52.52,71.75,5.26,7.25,9.92,15.03,14.86,22.57-.47.43-.94.86-1.41,1.3-1.32-.96-2.75-1.77-3.93-2.91-22.86-22.2-45.8-44.3-68.47-66.74-13.03-12.9-25.67-26.31-38.34-39.67-4.78-5.05-9.99-5.03-15.25-2.1-5.81,3.24-10.23,7.87-10.76,16.1-.76,11.55,5.97,18.85,11.88,26,21.85,26.44,44.27,52.28,66.4,78.43,5.83,6.9,11.37,14.11,17.04,21.18-7.72,1.1-12.43-4.05-17.1-8.36-20.66-19.07-40.95-38.64-61.52-57.83-5.78-5.39-11.71-10.77-18.17-14.98-6.21-4.05-14.23-1.75-19.12,3.91-3.73,4.32-3.89,11.61-.23,19.18,1.16,2.39,2.51,4.77,4.16,6.73,22.42,26.5,44.9,52.94,67.41,79.35,11.65,13.66,22.13,28.23,29.1,45.67,2.78,6.96,2.14,11.89-2.69,13.92-4.86,2.05-9.55,3.32-14.93-.74-15.21-11.5-31.02-22.13-49.27-26.37-4.43-1.03-10.33-1.23-13.83,1.26-10.36,7.36-8.65,22.19,2.08,31.4,12.94,11.11,25.31,23.08,37.98,34.6,2.66,2.42,5.36,4.94,8.38,6.71,25.28,14.87,52,24.48,80.49,27.5,13.41,1.42,26.86,2.44,40.21,4.34,7.02,1,13.37,4.16,14.45,14.59,30.74-21.29,60.98-42.23,92.39-63.98ZM660,154.73c3.62,2.02,7.23,4.04,10.73,5.99,27.35-51.27,65.2-82.9,119.45-84.9v-13.27c-53.95-1.64-104.77,37.46-130.18,92.18Zm207.89,560.75c-1.31,4.3-2.63,8.6-3.94,12.9,51.95,22.12,111.49,2.07,149.99-39.22-2.72-3.03-5.44-6.04-8.3-9.22-40.82,37.66-85.56,54.62-137.75,35.54Zm-78.95-581.71v-13.26c-32.49-3.79-68.84,26.3-80.49,57.4,3.43,1.82,6.87,3.65,10.44,5.56,16.2-30.21,38.1-49.19,70.04-49.7Zm96.54,527.6c-1.3,4.51-2.47,8.59-3.64,12.63,27.88,14.73,70.76,2.98,92.99-24.3-2.64-3.11-5.28-6.23-7.9-9.3-24.21,22.78-50.68,32.26-81.46,20.96Zm70.97-266.44c-.97,52.89-40.07,86.89-79.47,84.35-42.3-2.72-73.13-42.66-71.33-86.4,2.14-51.91,36.86-86.8,82.64-82.76,39.16,3.45,68.36,41.39,68.16,84.81Zm-75.33-42.18c-19.04-1.03-37.48,17.14-37.55,41.27-.07,24.53,16.42,42.86,37.15,42.61,21.78-.26,36.63-16.99,37.57-41.42.9-23.36-16.27-42.45-37.17-42.47Z"/>
</svg>