<?xml version="1.0" encoding="UTF-8"?>
<svg id="Layer_1" data-name="Layer 1" xmlns="http://www.w3.org/2000/svg" viewBox="0 0 1920 768">
  <path d="m1017.96,359.29c-3.23.56-6.27.63-8.96,1.64-15.75,5.89-20.92,20.77-11.58,34.76,4.66,6.98,10.46,13.28,16.25,19.4,14.85,15.7,29.89,31.23,45.1,46.58,3.32,3.35,3.86,5.86.53,8.88-7.09-2.43-13.99-5.28-21.15-7.15-16.87-4.4-27.2,2.08-31.75,17.39-2.58,8.69,2.67,20.97,10.38,26.25,2.15,1.47,4.29,2.94,7.61,5.21-9.98,6.52-18.94,12.97-28.46,18.46-16.57,9.56-34.55,15.75-53.37,18.83-19.74,3.23-39.52,3.19-59.41-.42-18.56-3.36-36.14-9.26-52.47-18.32-22.6-12.55-41.76-29.3-56.83-50.49-20.29-28.54-31.14-60.21-32.1-95.31-1.18-43.21,12.15-81.53,39.39-114.75,19.57-23.86,44.18-41.07,73.41-51.67,27.72-10.05,56.18-13.02,85.08-8.53,32.34,5.02,61.15,18.36,86.07,40,20.15,17.49,35.29,38.44,45.79,62.85.58,1.35.32,3.38-.24,4.82-.76,1.96-2.5,3.53-3.25,5.49-1.12,2.92-1.74,6.02-2.71,9.52-3.83-3.46-8.21-6.41-11.26-10.38-6.23-8.1-20.85-8.36-30.09-2.27-11.45,7.55-16.5,24.55-7.38,36.13.66.84.92,1.99,1.39,3.07Zm-30.43-120.69c-21.6-14.2-44.93-20.14-70.53-18.54v79.81c10.57,2.59,21,5.15,31.96,7.84,12.35-22.12,25.3-45.33,38.57-69.1Zm-2.22,141.45c.22-37.41-30.13-68.52-68.03-68.6-38.7-.08-68.93,29.99-69.28,68.52-.34,37.73,31.17,68.72,68.64,68.82,37.72.09,68.64-30.86,68.66-68.74Zm264.17,136.22c-6.22-18.63-11.64-37.5-18.85-55.66-6.12-15.43-12.94-30.92-21.88-44.82-16.55-25.75-34.82-50.4-52.55-75.38-1.7-2.39-4.52-4.22-7.18-5.65-3.46-1.86-7.74-1.88-9.82,1.55-1.43,2.36-1.5,6.41-.57,9.16,1.46,4.32,4.03,8.33,6.55,12.2,6.96,10.68,14.29,21.13,21.13,31.88,2.25,3.54,4.96,7.37,3.18,12.94-1.85-1.43-3.46-2.31-4.61-3.61-13.25-14.85-26.57-29.64-39.57-44.71-8.45-9.78-16.35-20.04-24.63-29.96-2.68-3.21-6.35-4.63-10.58-3.69-9.93,2.2-13.4,12.12-6.79,20.24,14.13,17.38,28.56,34.51,42.72,51.86,4.27,5.24,8.07,10.87,12.08,16.32-.38.31-.76.63-1.15.94-1.07-.7-2.24-1.28-3.2-2.1-18.59-16.05-37.25-32.02-55.69-48.24-10.6-9.33-20.88-19.01-31.19-28.67-3.89-3.65-8.13-3.64-12.4-1.52-4.73,2.35-8.32,5.69-8.76,11.64-.61,8.35,4.86,13.63,9.66,18.79,17.77,19.11,36.01,37.79,54.01,56.69,4.75,4.98,9.25,10.2,13.86,15.31-6.28.79-10.11-2.93-13.91-6.04-16.8-13.79-33.31-27.93-50.04-41.8-4.7-3.9-9.53-7.78-14.78-10.83-5.05-2.93-11.57-1.27-15.55,2.83-3.03,3.12-3.16,8.39-.18,13.86.94,1.73,2.04,3.45,3.39,4.87,18.24,19.15,36.52,38.27,54.82,57.36,9.47,9.88,18,20.41,23.67,33.01,2.26,5.03,1.74,8.59-2.19,10.06-3.96,1.48-7.76,2.4-12.14-.54-12.37-8.31-25.23-15.99-40.07-19.06-3.6-.74-8.4-.89-11.25.91-8.43,5.32-7.04,16.04,1.69,22.7,10.53,8.03,20.59,16.68,30.89,25.01,2.17,1.75,4.36,3.57,6.81,4.85,20.56,10.75,42.3,17.69,65.47,19.88,10.9,1.03,21.84,1.77,32.7,3.14,5.71.72,10.88,3,11.75,10.54,25-15.39,49.6-30.53,75.14-46.24ZM737.06,206.72c2.95,1.46,5.88,2.92,8.73,4.33,22.25-37.06,53.03-59.92,97.16-61.37v-9.59c-43.88-1.18-85.21,27.07-105.89,66.63Zm169.09,405.31c-1.07,3.11-2.14,6.22-3.21,9.33,42.25,15.99,90.68,1.49,122-28.35-2.21-2.19-4.42-4.37-6.75-6.67-33.2,27.22-69.59,39.48-112.04,25.69Zm-64.21-420.46v-9.58c-26.42-2.74-55.99,19.01-65.46,41.49,2.79,1.32,5.59,2.64,8.49,4.02,13.18-21.84,30.99-35.55,56.97-35.92Zm78.52,381.35c-1.06,3.26-2.01,6.21-2.96,9.13,22.68,10.65,57.55,2.16,75.64-17.56-2.15-2.25-4.3-4.5-6.42-6.72-19.69,16.46-41.22,23.32-66.26,15.15Zm57.72-192.58c-.79,38.23-32.59,62.8-64.64,60.97-34.41-1.97-59.48-30.83-58.02-62.45,1.74-37.52,29.98-62.74,67.22-59.82,31.85,2.5,55.6,29.92,55.44,61.3Zm-61.27-30.49c-15.49-.75-30.48,12.39-30.54,29.83-.06,17.73,13.36,30.98,30.22,30.8,17.71-.19,29.8-12.28,30.56-29.94.73-16.88-13.23-30.68-30.24-30.7Z"/>
</svg>